<mxfile host="app.diagrams.net" modified="2020-09-01T19:26:16.701Z" agent="5.0 (Windows NT 10.0; Win64; x64) AppleWebKit/537.36 (KHTML, like Gecko) Chrome/84.0.4147.135 Safari/537.36" etag="QPOkWbyVAF5ybyiuguuE" version="13.6.6" type="github" pages="5">
  <diagram id="_SIZnyFS6h-eS6f2PP6v" name="Page-1">
    <mxGraphModel dx="1108" dy="5126" grid="1" gridSize="10" guides="1" tooltips="1" connect="1" arrows="1" fold="1" page="1" pageScale="1" pageWidth="827" pageHeight="1169" math="0" shadow="0">
      <root>
        <mxCell id="0" />
        <mxCell id="1" parent="0" />
        <mxCell id="dGtViSTznUdyPwn4tENg-8" value="" style="group" parent="1" vertex="1" connectable="0">
          <mxGeometry x="10" y="-4660" width="1640" height="4670" as="geometry" />
        </mxCell>
        <mxCell id="ZXNnX0oiC3e3qP5SY0Nz-7" value="" style="strokeWidth=1;shadow=0;dashed=0;align=center;html=1;shape=mxgraph.mockup.containers.browserWindow;rSize=0;strokeColor=#666666;strokeColor2=#008cff;strokeColor3=#c4c4c4;mainText=,;recursiveResize=0;fillColor=#FFFFFF;" parent="dGtViSTznUdyPwn4tENg-8" vertex="1">
          <mxGeometry width="1640" height="4670" as="geometry" />
        </mxCell>
        <mxCell id="ZXNnX0oiC3e3qP5SY0Nz-8" value="Page 1" style="strokeWidth=1;shadow=0;dashed=0;align=center;html=1;shape=mxgraph.mockup.containers.anchor;fontSize=17;fontColor=#666666;align=left;" parent="ZXNnX0oiC3e3qP5SY0Nz-7" vertex="1">
          <mxGeometry x="60" y="12" width="110" height="26" as="geometry" />
        </mxCell>
        <mxCell id="ZXNnX0oiC3e3qP5SY0Nz-9" value="https://www.draw.io" style="strokeWidth=1;shadow=0;dashed=0;align=center;html=1;shape=mxgraph.mockup.containers.anchor;rSize=0;fontSize=17;fontColor=#666666;align=left;" parent="ZXNnX0oiC3e3qP5SY0Nz-7" vertex="1">
          <mxGeometry x="130" y="60" width="250" height="26" as="geometry" />
        </mxCell>
        <mxCell id="ZXNnX0oiC3e3qP5SY0Nz-10" value="" style="verticalLabelPosition=bottom;shadow=0;dashed=0;align=center;html=1;verticalAlign=top;strokeWidth=1;shape=mxgraph.mockup.graphics.simpleIcon;strokeColor=#999999;" parent="ZXNnX0oiC3e3qP5SY0Nz-7" vertex="1">
          <mxGeometry x="10" y="120" width="120" height="100" as="geometry" />
        </mxCell>
        <mxCell id="ZXNnX0oiC3e3qP5SY0Nz-11" value="&lt;font style=&quot;font-size: 18px&quot;&gt;&lt;b&gt;Logo&lt;/b&gt;&lt;/font&gt;" style="text;html=1;strokeColor=none;fillColor=none;align=center;verticalAlign=middle;whiteSpace=wrap;rounded=0;" parent="ZXNnX0oiC3e3qP5SY0Nz-7" vertex="1">
          <mxGeometry x="50" y="160" width="40" height="20" as="geometry" />
        </mxCell>
        <mxCell id="ZXNnX0oiC3e3qP5SY0Nz-12" value="&lt;font style=&quot;font-size: 18px&quot; face=&quot;Comic Sans MS&quot;&gt;&lt;b&gt;Mimys Hair &amp;amp; Beaute&#39; Louche&lt;/b&gt;&lt;/font&gt;" style="text;html=1;strokeColor=none;fillColor=none;align=center;verticalAlign=middle;whiteSpace=wrap;rounded=0;" parent="ZXNnX0oiC3e3qP5SY0Nz-7" vertex="1">
          <mxGeometry x="40" y="140" width="450" height="60" as="geometry" />
        </mxCell>
        <mxCell id="ZXNnX0oiC3e3qP5SY0Nz-16" value="" style="shape=rect;fillColor=#F6F6F6;strokeColor=none;" parent="ZXNnX0oiC3e3qP5SY0Nz-7" vertex="1">
          <mxGeometry x="1149" y="190" width="164" height="20" as="geometry" />
        </mxCell>
        <mxCell id="ZXNnX0oiC3e3qP5SY0Nz-18" value="Search" style="shape=mxgraph.ios7.icons.looking_glass;strokeColor=#878789;fillColor=none;fontColor=#878789;labelPosition=right;verticalLabelPosition=middle;align=left;verticalAlign=middle;fontSize=6;fontStyle=0;spacingTop=2;" parent="ZXNnX0oiC3e3qP5SY0Nz-16" vertex="1">
          <mxGeometry x="0.5" y="0.5" width="6" height="6" relative="1" as="geometry">
            <mxPoint x="-17" y="-3" as="offset" />
          </mxGeometry>
        </mxCell>
        <mxCell id="ZXNnX0oiC3e3qP5SY0Nz-25" value="&lt;font style=&quot;font-size: 18px&quot; face=&quot;Tahoma&quot;&gt;&lt;b&gt;Home&amp;nbsp; &amp;nbsp; &amp;nbsp; &amp;nbsp; &amp;nbsp; Hair&amp;nbsp; &amp;nbsp; &amp;nbsp; &amp;nbsp; &amp;nbsp;Makeup&amp;nbsp; &amp;nbsp; &amp;nbsp; &amp;nbsp; &amp;nbsp;Skincare&amp;nbsp; &amp;nbsp; &amp;nbsp; &amp;nbsp; &amp;nbsp;Haircare&amp;nbsp; &amp;nbsp; &amp;nbsp; &amp;nbsp; &amp;nbsp; &amp;nbsp; &amp;nbsp;Men&amp;nbsp; &amp;nbsp; &amp;nbsp; &amp;nbsp; &amp;nbsp; &amp;nbsp;Contact&lt;/b&gt;&lt;/font&gt;" style="text;html=1;strokeColor=none;fillColor=#E1D5E7;align=center;verticalAlign=middle;whiteSpace=wrap;rounded=0;" parent="ZXNnX0oiC3e3qP5SY0Nz-7" vertex="1">
          <mxGeometry x="10" y="220" width="1610" height="30" as="geometry" />
        </mxCell>
        <mxCell id="ZXNnX0oiC3e3qP5SY0Nz-37" value="&lt;h1&gt;My Skin My Pride!&lt;/h1&gt;&lt;p&gt;Lorem ipsum dolor sit amet, consectetur adipisicing elit, sed do eiusmod tempor incididunt ut labore et dolore magna aliqua.&lt;/p&gt;" style="text;html=1;strokeColor=none;fillColor=none;spacing=5;spacingTop=-20;whiteSpace=wrap;overflow=hidden;rounded=0;align=center;" parent="ZXNnX0oiC3e3qP5SY0Nz-7" vertex="1">
          <mxGeometry x="30.5" y="897.5" width="659" height="290" as="geometry" />
        </mxCell>
        <mxCell id="ZXNnX0oiC3e3qP5SY0Nz-41" value="&lt;h1&gt;We are Expert in all Nail Designs!&lt;/h1&gt;&lt;p&gt;Lorem ipsum dolor sit amet, consectetur adipisicing elit, sed do eiusmod tempor incididunt ut labore et dolore magna aliqua.&lt;/p&gt;" style="text;html=1;strokeColor=none;fillColor=none;spacing=5;spacingTop=-20;whiteSpace=wrap;overflow=hidden;rounded=0;align=center;" parent="ZXNnX0oiC3e3qP5SY0Nz-7" vertex="1">
          <mxGeometry y="1800" width="830" height="485" as="geometry" />
        </mxCell>
        <mxCell id="ZXNnX0oiC3e3qP5SY0Nz-43" value="&lt;h1&gt;Shop for all Types of Wigs!&lt;/h1&gt;&lt;p&gt;Lorem ipsum dolor sit amet, consectetur adipisicing elit, sed do eiusmod tempor incididunt ut labore et dolore magna aliqua.&lt;/p&gt;" style="text;html=1;strokeColor=none;fillColor=none;spacing=5;spacingTop=-20;whiteSpace=wrap;overflow=hidden;rounded=0;align=center;" parent="ZXNnX0oiC3e3qP5SY0Nz-7" vertex="1">
          <mxGeometry x="74" y="2720" width="660" height="330" as="geometry" />
        </mxCell>
        <mxCell id="ZXNnX0oiC3e3qP5SY0Nz-60" value="&lt;h1&gt;Shop for all Types of Wigs!&lt;/h1&gt;&lt;p&gt;Lorem ipsum dolor sit amet, consectetur adipisicing elit, sed do eiusmod tempor incididunt ut labore et dolore magna aliqua.&lt;/p&gt;" style="text;html=1;strokeColor=none;fillColor=none;spacing=5;spacingTop=-20;whiteSpace=wrap;overflow=hidden;rounded=0;align=center;" parent="ZXNnX0oiC3e3qP5SY0Nz-7" vertex="1">
          <mxGeometry x="69" y="3950" width="692" height="450" as="geometry" />
        </mxCell>
        <mxCell id="ZXNnX0oiC3e3qP5SY0Nz-61" value="&lt;h1&gt;&lt;br&gt;&lt;/h1&gt;&lt;h1&gt;Heading&lt;/h1&gt;&lt;p&gt;Lorem ipsum dolor sit amet, consectetur adipisicing elit, sed do eiusmod tempor incididunt ut labore et dolore magna aliqua.&lt;/p&gt;" style="text;html=1;strokeColor=none;fillColor=none;spacing=5;spacingTop=-20;whiteSpace=wrap;overflow=hidden;rounded=0;align=center;" parent="ZXNnX0oiC3e3qP5SY0Nz-7" vertex="1">
          <mxGeometry x="260" y="330" width="1200" height="260" as="geometry" />
        </mxCell>
        <mxCell id="ZXNnX0oiC3e3qP5SY0Nz-65" value="" style="verticalLabelPosition=bottom;shadow=0;dashed=0;align=center;html=1;verticalAlign=top;strokeWidth=1;shape=mxgraph.mockup.graphics.simpleIcon;strokeColor=#999999;fillColor=#E6E6E6;" parent="ZXNnX0oiC3e3qP5SY0Nz-7" vertex="1">
          <mxGeometry x="804" y="2560" width="750" height="865" as="geometry" />
        </mxCell>
        <mxCell id="ZXNnX0oiC3e3qP5SY0Nz-66" value="" style="verticalLabelPosition=bottom;shadow=0;dashed=0;align=center;html=1;verticalAlign=top;strokeWidth=1;shape=mxgraph.mockup.graphics.simpleIcon;strokeColor=#999999;fillColor=#E6E6E6;" parent="ZXNnX0oiC3e3qP5SY0Nz-7" vertex="1">
          <mxGeometry x="804" y="3530" width="750" height="865" as="geometry" />
        </mxCell>
        <mxCell id="ZXNnX0oiC3e3qP5SY0Nz-67" value="" style="verticalLabelPosition=bottom;shadow=0;dashed=0;align=center;html=1;verticalAlign=top;strokeWidth=1;shape=mxgraph.mockup.graphics.simpleIcon;strokeColor=#999999;fillColor=#E6E6E6;" parent="ZXNnX0oiC3e3qP5SY0Nz-7" vertex="1">
          <mxGeometry x="817" y="1570" width="750" height="865" as="geometry" />
        </mxCell>
        <mxCell id="ZXNnX0oiC3e3qP5SY0Nz-68" value="" style="verticalLabelPosition=bottom;shadow=0;dashed=0;align=center;html=1;verticalAlign=top;strokeWidth=1;shape=mxgraph.mockup.graphics.simpleIcon;strokeColor=#999999;fillColor=#E6E6E6;" parent="ZXNnX0oiC3e3qP5SY0Nz-7" vertex="1">
          <mxGeometry x="817" y="610" width="750" height="865" as="geometry" />
        </mxCell>
        <mxCell id="Xkclj11PRIltgbxQ1ce_-1" value="&lt;h1&gt;&lt;font style=&quot;font-size: 18px&quot;&gt;Useful &lt;/font&gt;&lt;font style=&quot;font-size: 18px&quot;&gt;Links!&lt;/font&gt;&lt;/h1&gt;&lt;div&gt;&lt;font style=&quot;font-size: 11px&quot;&gt;Coupons&lt;/font&gt;&lt;/div&gt;&lt;div&gt;&lt;font style=&quot;font-size: 11px&quot;&gt;Blog Post&lt;/font&gt;&lt;/div&gt;&lt;div&gt;&lt;font style=&quot;font-size: 11px&quot;&gt;Return Policy&lt;/font&gt;&lt;/div&gt;&lt;div&gt;&lt;font style=&quot;font-size: 11px&quot;&gt;Our Affiliate&lt;/font&gt;&lt;/div&gt;" style="text;html=1;strokeColor=none;fillColor=none;spacing=5;spacingTop=-20;whiteSpace=wrap;overflow=hidden;rounded=0;align=center;" parent="ZXNnX0oiC3e3qP5SY0Nz-7" vertex="1">
          <mxGeometry x="820" y="4525" width="190" height="110" as="geometry" />
        </mxCell>
        <mxCell id="Xkclj11PRIltgbxQ1ce_-2" value="&lt;h1&gt;&lt;font style=&quot;font-size: 11px&quot;&gt;Follow Us!!&lt;/font&gt;&lt;/h1&gt;&lt;div&gt;&lt;span style=&quot;font-size: 11px&quot;&gt;Facebook&lt;/span&gt;&lt;/div&gt;&lt;div&gt;&lt;span style=&quot;font-size: 11px&quot;&gt;Instagram&lt;/span&gt;&lt;/div&gt;&lt;div&gt;&lt;span style=&quot;font-size: 11px&quot;&gt;Linkedin&lt;/span&gt;&lt;/div&gt;&lt;div&gt;&lt;span style=&quot;font-size: 11px&quot;&gt;Twitter&lt;/span&gt;&lt;/div&gt;&lt;div&gt;&lt;span style=&quot;font-size: 11px&quot;&gt;Youtube&lt;/span&gt;&lt;/div&gt;&lt;div&gt;&lt;font style=&quot;font-size: 11px&quot;&gt;&lt;br&gt;&lt;/font&gt;&lt;/div&gt;" style="text;html=1;strokeColor=none;fillColor=none;spacing=5;spacingTop=-20;whiteSpace=wrap;overflow=hidden;rounded=0;align=center;" parent="ZXNnX0oiC3e3qP5SY0Nz-7" vertex="1">
          <mxGeometry x="1270" y="4510" width="190" height="120" as="geometry" />
        </mxCell>
        <mxCell id="Xkclj11PRIltgbxQ1ce_-3" value="" style="verticalLabelPosition=bottom;shadow=0;dashed=0;align=center;html=1;verticalAlign=top;strokeWidth=1;shape=mxgraph.mockup.forms.splitter;strokeColor=#999999;fillColor=#E6E6E6;" parent="ZXNnX0oiC3e3qP5SY0Nz-7" vertex="1">
          <mxGeometry x="30.5" y="4520" width="1600" height="10" as="geometry" />
        </mxCell>
        <UserObject label="%date{ddd mmm dd yyyy HH:MM:ss}%" placeholders="1" id="Xkclj11PRIltgbxQ1ce_-4">
          <mxCell style="text;html=1;strokeColor=none;fillColor=none;align=center;verticalAlign=middle;whiteSpace=wrap;overflow=hidden;" parent="ZXNnX0oiC3e3qP5SY0Nz-7" vertex="1">
            <mxGeometry x="1430" y="4620" width="160" height="20" as="geometry" />
          </mxCell>
        </UserObject>
        <mxCell id="Xkclj11PRIltgbxQ1ce_-5" value="" style="group" parent="ZXNnX0oiC3e3qP5SY0Nz-7" vertex="1" connectable="0">
          <mxGeometry x="70" y="4520" width="250" height="120" as="geometry" />
        </mxCell>
        <mxCell id="Xkclj11PRIltgbxQ1ce_-6" value="&lt;h1&gt;&lt;font style=&quot;font-size: 18px&quot;&gt;Download our App!&lt;/font&gt;&lt;/h1&gt;&lt;div&gt;&lt;font style=&quot;font-size: 11px&quot;&gt;Download App for Android and ios Mobile Phones.&lt;/font&gt;&lt;/div&gt;" style="text;html=1;strokeColor=none;fillColor=none;spacing=5;spacingTop=-20;whiteSpace=wrap;overflow=hidden;rounded=0;" parent="Xkclj11PRIltgbxQ1ce_-5" vertex="1">
          <mxGeometry width="190" height="120" as="geometry" />
        </mxCell>
        <mxCell id="Xkclj11PRIltgbxQ1ce_-7" value="" style="verticalLabelPosition=bottom;shadow=0;dashed=0;align=center;html=1;verticalAlign=top;strokeWidth=1;shape=mxgraph.mockup.graphics.simpleIcon;strokeColor=#999999;fillColor=#E6E6E6;" parent="Xkclj11PRIltgbxQ1ce_-5" vertex="1">
          <mxGeometry y="79" width="120" height="40" as="geometry" />
        </mxCell>
        <mxCell id="Xkclj11PRIltgbxQ1ce_-8" value="" style="verticalLabelPosition=bottom;shadow=0;dashed=0;align=center;html=1;verticalAlign=top;strokeWidth=1;shape=mxgraph.mockup.graphics.simpleIcon;strokeColor=#999999;fillColor=#E6E6E6;" parent="Xkclj11PRIltgbxQ1ce_-5" vertex="1">
          <mxGeometry x="130" y="80" width="120" height="40" as="geometry" />
        </mxCell>
        <mxCell id="Xkclj11PRIltgbxQ1ce_-9" value="&lt;font style=&quot;font-size: 14px&quot;&gt;&lt;b&gt;ios logo&lt;/b&gt;&lt;/font&gt;" style="text;html=1;strokeColor=none;fillColor=none;align=center;verticalAlign=middle;whiteSpace=wrap;rounded=0;" parent="Xkclj11PRIltgbxQ1ce_-5" vertex="1">
          <mxGeometry y="85" width="120" height="30" as="geometry" />
        </mxCell>
        <mxCell id="Xkclj11PRIltgbxQ1ce_-10" value="&lt;font style=&quot;font-size: 14px&quot;&gt;&lt;b&gt;Android Logo&lt;/b&gt;&lt;/font&gt;" style="text;html=1;strokeColor=none;fillColor=none;align=center;verticalAlign=middle;whiteSpace=wrap;rounded=0;" parent="Xkclj11PRIltgbxQ1ce_-5" vertex="1">
          <mxGeometry x="130" y="85" width="120" height="30" as="geometry" />
        </mxCell>
        <mxCell id="dGtViSTznUdyPwn4tENg-1" value="&lt;&lt; Prev 1 2 3 4 5 6 7 8 9 10 Next &gt;&gt;" style="strokeWidth=1;shadow=0;dashed=0;align=center;html=1;shape=mxgraph.mockup.navigation.pagination;linkText=;fontSize=17;fontColor=#0000ff;fontStyle=4;fillColor=#E6E6E6;" parent="ZXNnX0oiC3e3qP5SY0Nz-7" vertex="1">
          <mxGeometry x="1240" y="4460" width="350" height="30" as="geometry" />
        </mxCell>
        <mxCell id="dGtViSTznUdyPwn4tENg-2" value="Explore..." style="labelPosition=center;verticalLabelPosition=middle;align=center;html=1;shape=mxgraph.basic.shaded_button;dx=10;fillColor=#E6E6E6;strokeColor=none;" parent="ZXNnX0oiC3e3qP5SY0Nz-7" vertex="1">
          <mxGeometry x="330" y="2820" width="140" height="60" as="geometry" />
        </mxCell>
        <mxCell id="dGtViSTznUdyPwn4tENg-4" value="Explore..." style="labelPosition=center;verticalLabelPosition=middle;align=center;html=1;shape=mxgraph.basic.shaded_button;dx=10;fillColor=#E6E6E6;strokeColor=none;" parent="ZXNnX0oiC3e3qP5SY0Nz-7" vertex="1">
          <mxGeometry x="350" y="4030" width="140" height="60" as="geometry" />
        </mxCell>
        <mxCell id="dGtViSTznUdyPwn4tENg-5" value="Explore..." style="labelPosition=center;verticalLabelPosition=middle;align=center;html=1;shape=mxgraph.basic.shaded_button;dx=10;fillColor=#E6E6E6;strokeColor=none;" parent="ZXNnX0oiC3e3qP5SY0Nz-7" vertex="1">
          <mxGeometry x="340" y="1890" width="140" height="60" as="geometry" />
        </mxCell>
        <mxCell id="dGtViSTznUdyPwn4tENg-6" value="Explore..." style="labelPosition=center;verticalLabelPosition=middle;align=center;html=1;shape=mxgraph.basic.shaded_button;dx=10;fillColor=#E6E6E6;strokeColor=none;" parent="ZXNnX0oiC3e3qP5SY0Nz-7" vertex="1">
          <mxGeometry x="290" y="990" width="140" height="60" as="geometry" />
        </mxCell>
        <mxCell id="dGtViSTznUdyPwn4tENg-7" value="Text" style="text;html=1;resizable=0;autosize=1;align=center;verticalAlign=middle;points=[];fillColor=none;strokeColor=none;rounded=0;" parent="dGtViSTznUdyPwn4tENg-8" vertex="1">
          <mxGeometry x="460" y="1210" width="40" height="20" as="geometry" />
        </mxCell>
      </root>
    </mxGraphModel>
  </diagram>
  <diagram id="F1qWcP7byugfUH4eh2zs" name="Page-2">
    <mxGraphModel dx="1108" dy="5126" grid="1" gridSize="10" guides="1" tooltips="1" connect="1" arrows="1" fold="1" page="1" pageScale="1" pageWidth="827" pageHeight="1169" math="0" shadow="0">
      <root>
        <mxCell id="_qKldzhJ5OiEdJp5K3g7-0" />
        <mxCell id="_qKldzhJ5OiEdJp5K3g7-1" parent="_qKldzhJ5OiEdJp5K3g7-0" />
        <mxCell id="o2qVaON0X2fDX1mYzOQQ-1" value="" style="group" parent="_qKldzhJ5OiEdJp5K3g7-1" vertex="1" connectable="0">
          <mxGeometry x="10" y="-4659" width="1640" height="5020" as="geometry" />
        </mxCell>
        <mxCell id="o2qVaON0X2fDX1mYzOQQ-0" value="" style="group" parent="o2qVaON0X2fDX1mYzOQQ-1" vertex="1" connectable="0">
          <mxGeometry width="1640" height="5020" as="geometry" />
        </mxCell>
        <mxCell id="BtqLe-b-xOdoUxjaay2K-0" value="" style="strokeWidth=1;shadow=0;dashed=0;align=center;html=1;shape=mxgraph.mockup.containers.browserWindow;rSize=0;strokeColor=#666666;strokeColor2=#008cff;strokeColor3=#c4c4c4;mainText=,;recursiveResize=0;fillColor=#FFFFFF;" parent="o2qVaON0X2fDX1mYzOQQ-0" vertex="1">
          <mxGeometry width="1640" height="5020" as="geometry" />
        </mxCell>
        <mxCell id="BtqLe-b-xOdoUxjaay2K-1" value="Page 1" style="strokeWidth=1;shadow=0;dashed=0;align=center;html=1;shape=mxgraph.mockup.containers.anchor;fontSize=17;fontColor=#666666;align=left;" parent="BtqLe-b-xOdoUxjaay2K-0" vertex="1">
          <mxGeometry x="60" y="12" width="110" height="26" as="geometry" />
        </mxCell>
        <mxCell id="BtqLe-b-xOdoUxjaay2K-2" value="www.mimysbeautelouche.com" style="strokeWidth=1;shadow=0;dashed=0;align=center;html=1;shape=mxgraph.mockup.containers.anchor;rSize=0;fontSize=17;fontColor=#666666;align=left;" parent="BtqLe-b-xOdoUxjaay2K-0" vertex="1">
          <mxGeometry x="130" y="60" width="250" height="26" as="geometry" />
        </mxCell>
        <mxCell id="BtqLe-b-xOdoUxjaay2K-3" value="" style="verticalLabelPosition=bottom;shadow=0;dashed=0;align=center;html=1;verticalAlign=top;strokeWidth=1;shape=mxgraph.mockup.graphics.simpleIcon;strokeColor=#999999;" parent="BtqLe-b-xOdoUxjaay2K-0" vertex="1">
          <mxGeometry x="10" y="120" width="120" height="100" as="geometry" />
        </mxCell>
        <mxCell id="BtqLe-b-xOdoUxjaay2K-4" value="&lt;font style=&quot;font-size: 18px&quot;&gt;&lt;b&gt;Logo&lt;/b&gt;&lt;/font&gt;" style="text;html=1;strokeColor=none;fillColor=none;align=center;verticalAlign=middle;whiteSpace=wrap;rounded=0;" parent="BtqLe-b-xOdoUxjaay2K-0" vertex="1">
          <mxGeometry x="50" y="160" width="40" height="20" as="geometry" />
        </mxCell>
        <mxCell id="BtqLe-b-xOdoUxjaay2K-5" value="&lt;font style=&quot;font-size: 18px&quot; face=&quot;Comic Sans MS&quot;&gt;&lt;b&gt;Mimys Hair &amp;amp; Beaute&#39; Louche&lt;/b&gt;&lt;/font&gt;" style="text;html=1;strokeColor=none;fillColor=none;align=center;verticalAlign=middle;whiteSpace=wrap;rounded=0;" parent="BtqLe-b-xOdoUxjaay2K-0" vertex="1">
          <mxGeometry x="40" y="140" width="450" height="60" as="geometry" />
        </mxCell>
        <mxCell id="BtqLe-b-xOdoUxjaay2K-6" value="" style="shape=rect;fillColor=#F6F6F6;strokeColor=none;" parent="BtqLe-b-xOdoUxjaay2K-0" vertex="1">
          <mxGeometry x="1466" y="150" width="164" height="30" as="geometry" />
        </mxCell>
        <mxCell id="BtqLe-b-xOdoUxjaay2K-8" value="Search" style="shape=mxgraph.ios7.icons.looking_glass;strokeColor=#878789;fillColor=none;fontColor=#878789;labelPosition=right;verticalLabelPosition=middle;align=left;verticalAlign=middle;fontSize=6;fontStyle=0;spacingTop=2;" parent="BtqLe-b-xOdoUxjaay2K-6" vertex="1">
          <mxGeometry x="0.5" y="0.5" width="6" height="6" relative="1" as="geometry">
            <mxPoint x="-17" y="-3" as="offset" />
          </mxGeometry>
        </mxCell>
        <mxCell id="BtqLe-b-xOdoUxjaay2K-9" value="&lt;font style=&quot;font-size: 24px&quot; face=&quot;Tahoma&quot;&gt;Home&amp;nbsp; &amp;nbsp; &amp;nbsp; &amp;nbsp; &amp;nbsp; &amp;nbsp;Hair&amp;nbsp; &amp;nbsp; &amp;nbsp; &amp;nbsp; &amp;nbsp; Makeup&amp;nbsp; &amp;nbsp; &amp;nbsp; &amp;nbsp; &amp;nbsp; &amp;nbsp;Skincare&amp;nbsp; &amp;nbsp; &amp;nbsp; &amp;nbsp; &amp;nbsp; &amp;nbsp; Haircare&amp;nbsp; &amp;nbsp; &amp;nbsp; &amp;nbsp; &amp;nbsp; &amp;nbsp; &amp;nbsp;Men&amp;nbsp; &amp;nbsp; &amp;nbsp; &amp;nbsp; &amp;nbsp; Babies&amp;nbsp; &amp;nbsp;Contact&lt;/font&gt;" style="text;html=1;strokeColor=none;fillColor=#E1D5E7;align=center;verticalAlign=middle;whiteSpace=wrap;rounded=0;" parent="BtqLe-b-xOdoUxjaay2K-0" vertex="1">
          <mxGeometry x="10" y="223" width="1620" height="50" as="geometry" />
        </mxCell>
        <mxCell id="BtqLe-b-xOdoUxjaay2K-21" value="&lt;h1&gt;&lt;br&gt;&lt;/h1&gt;&lt;h1&gt;Human Hair Section&lt;/h1&gt;&lt;p&gt;Lorem ipsum dolor sit amet, consectetur adipisicing elit, sed do eiusmod tempor incididunt ut labore et dolore magna aliqua.&lt;/p&gt;" style="text;html=1;strokeColor=none;fillColor=none;spacing=5;spacingTop=-20;whiteSpace=wrap;overflow=hidden;rounded=0;align=center;" parent="BtqLe-b-xOdoUxjaay2K-0" vertex="1">
          <mxGeometry x="260" y="330" width="1200" height="260" as="geometry" />
        </mxCell>
        <mxCell id="BtqLe-b-xOdoUxjaay2K-35" value="" style="group" parent="BtqLe-b-xOdoUxjaay2K-0" vertex="1" connectable="0">
          <mxGeometry x="70" y="638" width="1480" height="1340" as="geometry" />
        </mxCell>
        <mxCell id="BtqLe-b-xOdoUxjaay2K-26" value="" style="verticalLabelPosition=bottom;shadow=0;dashed=0;align=center;html=1;verticalAlign=top;strokeWidth=1;shape=mxgraph.mockup.graphics.simpleIcon;strokeColor=#999999;fillColor=#ffffff;" parent="BtqLe-b-xOdoUxjaay2K-35" vertex="1">
          <mxGeometry width="370" height="335" as="geometry" />
        </mxCell>
        <mxCell id="BtqLe-b-xOdoUxjaay2K-27" value="" style="verticalLabelPosition=bottom;shadow=0;dashed=0;align=center;html=1;verticalAlign=top;strokeWidth=1;shape=mxgraph.mockup.graphics.simpleIcon;strokeColor=#999999;fillColor=#ffffff;" parent="BtqLe-b-xOdoUxjaay2K-35" vertex="1">
          <mxGeometry x="555" width="370" height="335" as="geometry" />
        </mxCell>
        <mxCell id="BtqLe-b-xOdoUxjaay2K-28" value="" style="verticalLabelPosition=bottom;shadow=0;dashed=0;align=center;html=1;verticalAlign=top;strokeWidth=1;shape=mxgraph.mockup.graphics.simpleIcon;strokeColor=#999999;fillColor=#ffffff;" parent="BtqLe-b-xOdoUxjaay2K-35" vertex="1">
          <mxGeometry x="1110" width="370" height="335" as="geometry" />
        </mxCell>
        <mxCell id="BtqLe-b-xOdoUxjaay2K-29" value="" style="verticalLabelPosition=bottom;shadow=0;dashed=0;align=center;html=1;verticalAlign=top;strokeWidth=1;shape=mxgraph.mockup.graphics.simpleIcon;strokeColor=#999999;fillColor=#ffffff;" parent="BtqLe-b-xOdoUxjaay2K-35" vertex="1">
          <mxGeometry y="502.50000000000006" width="370" height="335" as="geometry" />
        </mxCell>
        <mxCell id="BtqLe-b-xOdoUxjaay2K-30" value="" style="verticalLabelPosition=bottom;shadow=0;dashed=0;align=center;html=1;verticalAlign=top;strokeWidth=1;shape=mxgraph.mockup.graphics.simpleIcon;strokeColor=#999999;fillColor=#ffffff;" parent="BtqLe-b-xOdoUxjaay2K-35" vertex="1">
          <mxGeometry x="555" y="502.50000000000006" width="370" height="335" as="geometry" />
        </mxCell>
        <mxCell id="BtqLe-b-xOdoUxjaay2K-31" value="" style="verticalLabelPosition=bottom;shadow=0;dashed=0;align=center;html=1;verticalAlign=top;strokeWidth=1;shape=mxgraph.mockup.graphics.simpleIcon;strokeColor=#999999;fillColor=#ffffff;" parent="BtqLe-b-xOdoUxjaay2K-35" vertex="1">
          <mxGeometry x="1110" y="502.50000000000006" width="370" height="335" as="geometry" />
        </mxCell>
        <mxCell id="BtqLe-b-xOdoUxjaay2K-32" value="" style="verticalLabelPosition=bottom;shadow=0;dashed=0;align=center;html=1;verticalAlign=top;strokeWidth=1;shape=mxgraph.mockup.graphics.simpleIcon;strokeColor=#999999;fillColor=#ffffff;" parent="BtqLe-b-xOdoUxjaay2K-35" vertex="1">
          <mxGeometry y="1005.0000000000001" width="370" height="335" as="geometry" />
        </mxCell>
        <mxCell id="BtqLe-b-xOdoUxjaay2K-33" value="" style="verticalLabelPosition=bottom;shadow=0;dashed=0;align=center;html=1;verticalAlign=top;strokeWidth=1;shape=mxgraph.mockup.graphics.simpleIcon;strokeColor=#999999;fillColor=#ffffff;" parent="BtqLe-b-xOdoUxjaay2K-35" vertex="1">
          <mxGeometry x="555" y="1005.0000000000001" width="370" height="335" as="geometry" />
        </mxCell>
        <mxCell id="BtqLe-b-xOdoUxjaay2K-34" value="" style="verticalLabelPosition=bottom;shadow=0;dashed=0;align=center;html=1;verticalAlign=top;strokeWidth=1;shape=mxgraph.mockup.graphics.simpleIcon;strokeColor=#999999;fillColor=#ffffff;" parent="BtqLe-b-xOdoUxjaay2K-35" vertex="1">
          <mxGeometry x="1110" y="1005.0000000000001" width="370" height="335" as="geometry" />
        </mxCell>
        <mxCell id="BtqLe-b-xOdoUxjaay2K-36" value="" style="group" parent="BtqLe-b-xOdoUxjaay2K-0" vertex="1" connectable="0">
          <mxGeometry x="80" y="2208" width="1480" height="1340" as="geometry" />
        </mxCell>
        <mxCell id="BtqLe-b-xOdoUxjaay2K-37" value="" style="verticalLabelPosition=bottom;shadow=0;dashed=0;align=center;html=1;verticalAlign=top;strokeWidth=1;shape=mxgraph.mockup.graphics.simpleIcon;strokeColor=#999999;fillColor=#ffffff;" parent="BtqLe-b-xOdoUxjaay2K-36" vertex="1">
          <mxGeometry width="370" height="335" as="geometry" />
        </mxCell>
        <mxCell id="BtqLe-b-xOdoUxjaay2K-38" value="" style="verticalLabelPosition=bottom;shadow=0;dashed=0;align=center;html=1;verticalAlign=top;strokeWidth=1;shape=mxgraph.mockup.graphics.simpleIcon;strokeColor=#999999;fillColor=#ffffff;" parent="BtqLe-b-xOdoUxjaay2K-36" vertex="1">
          <mxGeometry x="555" width="370" height="335" as="geometry" />
        </mxCell>
        <mxCell id="BtqLe-b-xOdoUxjaay2K-39" value="" style="verticalLabelPosition=bottom;shadow=0;dashed=0;align=center;html=1;verticalAlign=top;strokeWidth=1;shape=mxgraph.mockup.graphics.simpleIcon;strokeColor=#999999;fillColor=#ffffff;" parent="BtqLe-b-xOdoUxjaay2K-36" vertex="1">
          <mxGeometry x="1110" width="370" height="335" as="geometry" />
        </mxCell>
        <mxCell id="BtqLe-b-xOdoUxjaay2K-56" value="" style="group" parent="BtqLe-b-xOdoUxjaay2K-36" vertex="1" connectable="0">
          <mxGeometry y="502.50000000000006" width="1480" height="837.5" as="geometry" />
        </mxCell>
        <mxCell id="BtqLe-b-xOdoUxjaay2K-40" value="" style="verticalLabelPosition=bottom;shadow=0;dashed=0;align=center;html=1;verticalAlign=top;strokeWidth=1;shape=mxgraph.mockup.graphics.simpleIcon;strokeColor=#999999;fillColor=#ffffff;" parent="BtqLe-b-xOdoUxjaay2K-56" vertex="1">
          <mxGeometry width="370" height="335" as="geometry" />
        </mxCell>
        <mxCell id="BtqLe-b-xOdoUxjaay2K-41" value="" style="verticalLabelPosition=bottom;shadow=0;dashed=0;align=center;html=1;verticalAlign=top;strokeWidth=1;shape=mxgraph.mockup.graphics.simpleIcon;strokeColor=#999999;fillColor=#ffffff;" parent="BtqLe-b-xOdoUxjaay2K-56" vertex="1">
          <mxGeometry x="555" width="370" height="335" as="geometry" />
        </mxCell>
        <mxCell id="BtqLe-b-xOdoUxjaay2K-42" value="" style="verticalLabelPosition=bottom;shadow=0;dashed=0;align=center;html=1;verticalAlign=top;strokeWidth=1;shape=mxgraph.mockup.graphics.simpleIcon;strokeColor=#999999;fillColor=#ffffff;" parent="BtqLe-b-xOdoUxjaay2K-56" vertex="1">
          <mxGeometry x="1110" width="370" height="335" as="geometry" />
        </mxCell>
        <mxCell id="BtqLe-b-xOdoUxjaay2K-57" value="" style="group" parent="BtqLe-b-xOdoUxjaay2K-56" vertex="1" connectable="0">
          <mxGeometry y="502.50000000000006" width="1480" height="334.99999999999994" as="geometry" />
        </mxCell>
        <mxCell id="BtqLe-b-xOdoUxjaay2K-43" value="" style="verticalLabelPosition=bottom;shadow=0;dashed=0;align=center;html=1;verticalAlign=top;strokeWidth=1;shape=mxgraph.mockup.graphics.simpleIcon;strokeColor=#999999;fillColor=#ffffff;" parent="BtqLe-b-xOdoUxjaay2K-57" vertex="1">
          <mxGeometry width="370" height="335" as="geometry" />
        </mxCell>
        <mxCell id="BtqLe-b-xOdoUxjaay2K-44" value="" style="verticalLabelPosition=bottom;shadow=0;dashed=0;align=center;html=1;verticalAlign=top;strokeWidth=1;shape=mxgraph.mockup.graphics.simpleIcon;strokeColor=#999999;fillColor=#ffffff;" parent="BtqLe-b-xOdoUxjaay2K-57" vertex="1">
          <mxGeometry x="555" width="370" height="335" as="geometry" />
        </mxCell>
        <mxCell id="BtqLe-b-xOdoUxjaay2K-45" value="" style="verticalLabelPosition=bottom;shadow=0;dashed=0;align=center;html=1;verticalAlign=top;strokeWidth=1;shape=mxgraph.mockup.graphics.simpleIcon;strokeColor=#999999;fillColor=#ffffff;" parent="BtqLe-b-xOdoUxjaay2K-57" vertex="1">
          <mxGeometry x="1110" width="370" height="335" as="geometry" />
        </mxCell>
        <mxCell id="BtqLe-b-xOdoUxjaay2K-58" value="" style="group" parent="BtqLe-b-xOdoUxjaay2K-56" vertex="1" connectable="0">
          <mxGeometry x="10" y="512.5" width="1480" height="334.99999999999994" as="geometry" />
        </mxCell>
        <mxCell id="BtqLe-b-xOdoUxjaay2K-59" value="" style="verticalLabelPosition=bottom;shadow=0;dashed=0;align=center;html=1;verticalAlign=top;strokeWidth=1;shape=mxgraph.mockup.graphics.simpleIcon;strokeColor=#999999;fillColor=#ffffff;" parent="BtqLe-b-xOdoUxjaay2K-58" vertex="1">
          <mxGeometry width="370" height="335" as="geometry" />
        </mxCell>
        <mxCell id="BtqLe-b-xOdoUxjaay2K-60" value="" style="verticalLabelPosition=bottom;shadow=0;dashed=0;align=center;html=1;verticalAlign=top;strokeWidth=1;shape=mxgraph.mockup.graphics.simpleIcon;strokeColor=#999999;fillColor=#ffffff;" parent="BtqLe-b-xOdoUxjaay2K-58" vertex="1">
          <mxGeometry x="555" width="370" height="335" as="geometry" />
        </mxCell>
        <mxCell id="BtqLe-b-xOdoUxjaay2K-61" value="" style="verticalLabelPosition=bottom;shadow=0;dashed=0;align=center;html=1;verticalAlign=top;strokeWidth=1;shape=mxgraph.mockup.graphics.simpleIcon;strokeColor=#999999;fillColor=#ffffff;" parent="BtqLe-b-xOdoUxjaay2K-58" vertex="1">
          <mxGeometry x="1110" width="370" height="335" as="geometry" />
        </mxCell>
        <mxCell id="BtqLe-b-xOdoUxjaay2K-46" value="" style="group" parent="BtqLe-b-xOdoUxjaay2K-0" vertex="1" connectable="0">
          <mxGeometry x="90" y="3640" width="1480" height="1340" as="geometry" />
        </mxCell>
        <mxCell id="BtqLe-b-xOdoUxjaay2K-47" value="" style="verticalLabelPosition=bottom;shadow=0;dashed=0;align=center;html=1;verticalAlign=top;strokeWidth=1;shape=mxgraph.mockup.graphics.simpleIcon;strokeColor=#999999;fillColor=#ffffff;" parent="BtqLe-b-xOdoUxjaay2K-46" vertex="1">
          <mxGeometry y="79" width="370" height="335" as="geometry" />
        </mxCell>
        <mxCell id="BtqLe-b-xOdoUxjaay2K-48" value="" style="verticalLabelPosition=bottom;shadow=0;dashed=0;align=center;html=1;verticalAlign=top;strokeWidth=1;shape=mxgraph.mockup.graphics.simpleIcon;strokeColor=#999999;fillColor=#ffffff;" parent="BtqLe-b-xOdoUxjaay2K-46" vertex="1">
          <mxGeometry x="555" y="79" width="370" height="335" as="geometry" />
        </mxCell>
        <mxCell id="BtqLe-b-xOdoUxjaay2K-49" value="" style="verticalLabelPosition=bottom;shadow=0;dashed=0;align=center;html=1;verticalAlign=top;strokeWidth=1;shape=mxgraph.mockup.graphics.simpleIcon;strokeColor=#999999;fillColor=#ffffff;" parent="BtqLe-b-xOdoUxjaay2K-46" vertex="1">
          <mxGeometry x="1110" y="79" width="370" height="335" as="geometry" />
        </mxCell>
        <mxCell id="BtqLe-b-xOdoUxjaay2K-50" value="" style="verticalLabelPosition=bottom;shadow=0;dashed=0;align=center;html=1;verticalAlign=top;strokeWidth=1;shape=mxgraph.mockup.graphics.simpleIcon;strokeColor=#999999;fillColor=#ffffff;" parent="BtqLe-b-xOdoUxjaay2K-46" vertex="1">
          <mxGeometry y="581.5" width="370" height="335" as="geometry" />
        </mxCell>
        <mxCell id="BtqLe-b-xOdoUxjaay2K-51" value="" style="verticalLabelPosition=bottom;shadow=0;dashed=0;align=center;html=1;verticalAlign=top;strokeWidth=1;shape=mxgraph.mockup.graphics.simpleIcon;strokeColor=#999999;fillColor=#ffffff;" parent="BtqLe-b-xOdoUxjaay2K-46" vertex="1">
          <mxGeometry x="555" y="581.5" width="370" height="335" as="geometry" />
        </mxCell>
        <mxCell id="BtqLe-b-xOdoUxjaay2K-52" value="" style="verticalLabelPosition=bottom;shadow=0;dashed=0;align=center;html=1;verticalAlign=top;strokeWidth=1;shape=mxgraph.mockup.graphics.simpleIcon;strokeColor=#999999;fillColor=#ffffff;" parent="BtqLe-b-xOdoUxjaay2K-46" vertex="1">
          <mxGeometry x="1110" y="581.5" width="370" height="335" as="geometry" />
        </mxCell>
        <mxCell id="r7zXpZ3DW8W2Lm8muUgR-0" value="&lt;h1&gt;&lt;font style=&quot;font-size: 18px&quot;&gt;Useful &lt;/font&gt;&lt;font style=&quot;font-size: 18px&quot;&gt;Links!&lt;/font&gt;&lt;/h1&gt;&lt;div&gt;&lt;font style=&quot;font-size: 11px&quot;&gt;Coupons&lt;/font&gt;&lt;/div&gt;&lt;div&gt;&lt;font style=&quot;font-size: 11px&quot;&gt;Blog Post&lt;/font&gt;&lt;/div&gt;&lt;div&gt;&lt;font style=&quot;font-size: 11px&quot;&gt;Return Policy&lt;/font&gt;&lt;/div&gt;&lt;div&gt;&lt;font style=&quot;font-size: 11px&quot;&gt;Our Affiliate&lt;/font&gt;&lt;/div&gt;" style="text;html=1;strokeColor=none;fillColor=none;spacing=5;spacingTop=-20;whiteSpace=wrap;overflow=hidden;rounded=0;align=center;" parent="BtqLe-b-xOdoUxjaay2K-0" vertex="1">
          <mxGeometry x="813.5" y="4885" width="190" height="185" as="geometry" />
        </mxCell>
        <mxCell id="r7zXpZ3DW8W2Lm8muUgR-1" value="&lt;h1&gt;&lt;font style=&quot;font-size: 11px&quot;&gt;Follow Us!!&lt;/font&gt;&lt;/h1&gt;&lt;div&gt;&lt;span style=&quot;font-size: 11px&quot;&gt;Facebook&lt;/span&gt;&lt;/div&gt;&lt;div&gt;&lt;span style=&quot;font-size: 11px&quot;&gt;Instagram&lt;/span&gt;&lt;/div&gt;&lt;div&gt;&lt;span style=&quot;font-size: 11px&quot;&gt;Linkedin&lt;/span&gt;&lt;/div&gt;&lt;div&gt;&lt;span style=&quot;font-size: 11px&quot;&gt;Twitter&lt;/span&gt;&lt;/div&gt;&lt;div&gt;&lt;span style=&quot;font-size: 11px&quot;&gt;Youtube&lt;/span&gt;&lt;/div&gt;&lt;div&gt;&lt;font style=&quot;font-size: 11px&quot;&gt;&lt;br&gt;&lt;/font&gt;&lt;/div&gt;" style="text;html=1;strokeColor=none;fillColor=none;spacing=5;spacingTop=-20;whiteSpace=wrap;overflow=hidden;rounded=0;align=center;" parent="BtqLe-b-xOdoUxjaay2K-0" vertex="1">
          <mxGeometry x="1260" y="4880" width="190" height="120" as="geometry" />
        </mxCell>
        <mxCell id="r7zXpZ3DW8W2Lm8muUgR-2" value="" style="verticalLabelPosition=bottom;shadow=0;dashed=0;align=center;html=1;verticalAlign=top;strokeWidth=1;shape=mxgraph.mockup.forms.splitter;strokeColor=#999999;fillColor=#E6E6E6;" parent="BtqLe-b-xOdoUxjaay2K-0" vertex="1">
          <mxGeometry x="24" y="4880" width="1600" height="10" as="geometry" />
        </mxCell>
        <UserObject label="%date{ddd mmm dd yyyy HH:MM:ss}%" placeholders="1" id="r7zXpZ3DW8W2Lm8muUgR-3">
          <mxCell style="text;html=1;strokeColor=none;fillColor=none;align=center;verticalAlign=middle;whiteSpace=wrap;overflow=hidden;" parent="BtqLe-b-xOdoUxjaay2K-0" vertex="1">
            <mxGeometry x="1423.5" y="4980" width="160" height="20" as="geometry" />
          </mxCell>
        </UserObject>
        <mxCell id="r7zXpZ3DW8W2Lm8muUgR-4" value="" style="group" parent="BtqLe-b-xOdoUxjaay2K-0" vertex="1" connectable="0">
          <mxGeometry x="63.5" y="4880" width="250" height="120" as="geometry" />
        </mxCell>
        <mxCell id="r7zXpZ3DW8W2Lm8muUgR-5" value="&lt;h1&gt;&lt;font style=&quot;font-size: 18px&quot;&gt;Download our App!&lt;/font&gt;&lt;/h1&gt;&lt;div&gt;&lt;font style=&quot;font-size: 11px&quot;&gt;Download App for Android and ios Mobile Phones.&lt;/font&gt;&lt;/div&gt;" style="text;html=1;strokeColor=none;fillColor=none;spacing=5;spacingTop=-20;whiteSpace=wrap;overflow=hidden;rounded=0;" parent="r7zXpZ3DW8W2Lm8muUgR-4" vertex="1">
          <mxGeometry width="190" height="120" as="geometry" />
        </mxCell>
        <mxCell id="r7zXpZ3DW8W2Lm8muUgR-6" value="" style="verticalLabelPosition=bottom;shadow=0;dashed=0;align=center;html=1;verticalAlign=top;strokeWidth=1;shape=mxgraph.mockup.graphics.simpleIcon;strokeColor=#999999;fillColor=#E6E6E6;" parent="r7zXpZ3DW8W2Lm8muUgR-4" vertex="1">
          <mxGeometry y="79" width="120" height="40" as="geometry" />
        </mxCell>
        <mxCell id="r7zXpZ3DW8W2Lm8muUgR-7" value="" style="verticalLabelPosition=bottom;shadow=0;dashed=0;align=center;html=1;verticalAlign=top;strokeWidth=1;shape=mxgraph.mockup.graphics.simpleIcon;strokeColor=#999999;fillColor=#E6E6E6;" parent="r7zXpZ3DW8W2Lm8muUgR-4" vertex="1">
          <mxGeometry x="130" y="80" width="120" height="40" as="geometry" />
        </mxCell>
        <mxCell id="r7zXpZ3DW8W2Lm8muUgR-8" value="&lt;font style=&quot;font-size: 14px&quot;&gt;&lt;b&gt;ios logo&lt;/b&gt;&lt;/font&gt;" style="text;html=1;strokeColor=none;fillColor=none;align=center;verticalAlign=middle;whiteSpace=wrap;rounded=0;" parent="r7zXpZ3DW8W2Lm8muUgR-4" vertex="1">
          <mxGeometry y="85" width="120" height="30" as="geometry" />
        </mxCell>
        <mxCell id="r7zXpZ3DW8W2Lm8muUgR-9" value="&lt;font style=&quot;font-size: 14px&quot;&gt;&lt;b&gt;Android Logo&lt;/b&gt;&lt;/font&gt;" style="text;html=1;strokeColor=none;fillColor=none;align=center;verticalAlign=middle;whiteSpace=wrap;rounded=0;" parent="r7zXpZ3DW8W2Lm8muUgR-4" vertex="1">
          <mxGeometry x="130" y="85" width="120" height="30" as="geometry" />
        </mxCell>
        <mxCell id="hMLXY2nUithrXv3KljyV-0" value="&lt;&lt; Prev 1 2 3 4 5 6 7 8 9 10 Next &gt;&gt;" style="strokeWidth=1;shadow=0;dashed=0;align=center;html=1;shape=mxgraph.mockup.navigation.pagination;linkText=;fontSize=17;fontColor=#0000ff;fontStyle=4;fillColor=#E6E6E6;" parent="o2qVaON0X2fDX1mYzOQQ-0" vertex="1">
          <mxGeometry x="1246" y="4850" width="350" height="30" as="geometry" />
        </mxCell>
      </root>
    </mxGraphModel>
  </diagram>
  <diagram id="cPjEwsBrao9pes_VvGHa" name="Page-3">
    
    <mxGraphModel dx="3166" dy="5962" grid="1" gridSize="10" guides="1" tooltips="1" connect="1" arrows="1" fold="1" page="1" pageScale="1" pageWidth="827" pageHeight="1169" math="0" shadow="0">
      
      <root>
        
        <mxCell id="KsWRLZQ2symkS8kZ4Nw0-0" />
        
        <mxCell id="KsWRLZQ2symkS8kZ4Nw0-1" parent="KsWRLZQ2symkS8kZ4Nw0-0" />
        
        <mxCell id="z899GwzV8BRNT4sWPu0R-0" value="" style="group" parent="KsWRLZQ2symkS8kZ4Nw0-1" vertex="1" connectable="0">
          
          <mxGeometry x="10" y="-4660" width="1640" height="5030" as="geometry" />
          
        </mxCell>
        
        <mxCell id="KsWRLZQ2symkS8kZ4Nw0-2" value="" style="strokeWidth=1;shadow=0;dashed=0;align=center;html=1;shape=mxgraph.mockup.containers.browserWindow;rSize=0;strokeColor=#666666;strokeColor2=#008cff;strokeColor3=#c4c4c4;mainText=,;recursiveResize=0;fillColor=#FFFFFF;" parent="z899GwzV8BRNT4sWPu0R-0" vertex="1">
          
          <mxGeometry width="1640" height="5030" as="geometry" />
          
        </mxCell>
        
        <mxCell id="KsWRLZQ2symkS8kZ4Nw0-3" value="Page 1" style="strokeWidth=1;shadow=0;dashed=0;align=center;html=1;shape=mxgraph.mockup.containers.anchor;fontSize=17;fontColor=#666666;align=left;" parent="KsWRLZQ2symkS8kZ4Nw0-2" vertex="1">
          
          <mxGeometry x="60" y="12" width="110" height="26" as="geometry" />
          
        </mxCell>
        
        <mxCell id="KsWRLZQ2symkS8kZ4Nw0-4" value="www.mimysbeautelouche.com" style="strokeWidth=1;shadow=0;dashed=0;align=center;html=1;shape=mxgraph.mockup.containers.anchor;rSize=0;fontSize=17;fontColor=#666666;align=left;" parent="KsWRLZQ2symkS8kZ4Nw0-2" vertex="1">
          
          <mxGeometry x="130" y="60" width="250" height="26" as="geometry" />
          
        </mxCell>
        
        <mxCell id="KsWRLZQ2symkS8kZ4Nw0-5" value="" style="verticalLabelPosition=bottom;shadow=0;dashed=0;align=center;html=1;verticalAlign=top;strokeWidth=1;shape=mxgraph.mockup.graphics.simpleIcon;strokeColor=#999999;" parent="KsWRLZQ2symkS8kZ4Nw0-2" vertex="1">
          
          <mxGeometry x="10" y="120" width="120" height="100" as="geometry" />
          
        </mxCell>
        
        <mxCell id="KsWRLZQ2symkS8kZ4Nw0-6" value="&lt;font style=&quot;font-size: 18px&quot;&gt;&lt;b&gt;Logo&lt;/b&gt;&lt;/font&gt;" style="text;html=1;strokeColor=none;fillColor=none;align=center;verticalAlign=middle;whiteSpace=wrap;rounded=0;" parent="KsWRLZQ2symkS8kZ4Nw0-2" vertex="1">
          
          <mxGeometry x="50" y="160" width="40" height="20" as="geometry" />
          
        </mxCell>
        
        <mxCell id="KsWRLZQ2symkS8kZ4Nw0-7" value="&lt;font style=&quot;font-size: 18px&quot; face=&quot;Comic Sans MS&quot;&gt;&lt;b&gt;Mimys Hair &amp;amp; Beaute&#39; Louche&lt;/b&gt;&lt;/font&gt;" style="text;html=1;strokeColor=none;fillColor=none;align=center;verticalAlign=middle;whiteSpace=wrap;rounded=0;" parent="KsWRLZQ2symkS8kZ4Nw0-2" vertex="1">
          
          <mxGeometry x="40" y="140" width="450" height="60" as="geometry" />
          
        </mxCell>
        
        <mxCell id="KsWRLZQ2symkS8kZ4Nw0-8" value="" style="shape=rect;fillColor=#F6F6F6;strokeColor=none;" parent="KsWRLZQ2symkS8kZ4Nw0-2" vertex="1">
          
          <mxGeometry x="1466" y="150" width="164" height="30" as="geometry" />
          
        </mxCell>
        
        <mxCell id="KsWRLZQ2symkS8kZ4Nw0-9" value="Search" style="shape=mxgraph.ios7.icons.looking_glass;strokeColor=#878789;fillColor=none;fontColor=#878789;labelPosition=right;verticalLabelPosition=middle;align=left;verticalAlign=middle;fontSize=6;fontStyle=0;spacingTop=2;" parent="KsWRLZQ2symkS8kZ4Nw0-8" vertex="1">
          
          <mxGeometry x="0.5" y="0.5" width="6" height="6" relative="1" as="geometry">
            
            <mxPoint x="-17" y="-3" as="offset" />
            
          </mxGeometry>
          
        </mxCell>
        
        <mxCell id="KsWRLZQ2symkS8kZ4Nw0-10" value="&lt;font style=&quot;font-size: 24px&quot; face=&quot;Tahoma&quot;&gt;Home&amp;nbsp; &amp;nbsp; &amp;nbsp; &amp;nbsp; &amp;nbsp; &amp;nbsp;Hair&amp;nbsp; &amp;nbsp; &amp;nbsp; &amp;nbsp; &amp;nbsp; Makeup&amp;nbsp; &amp;nbsp; &amp;nbsp; &amp;nbsp; &amp;nbsp; &amp;nbsp;Skincare&amp;nbsp; &amp;nbsp; &amp;nbsp; &amp;nbsp; &amp;nbsp; &amp;nbsp; Haircare&amp;nbsp; &amp;nbsp; &amp;nbsp; &amp;nbsp; &amp;nbsp; &amp;nbsp; &amp;nbsp;Men&amp;nbsp; &amp;nbsp; &amp;nbsp; &amp;nbsp; &amp;nbsp; Babies&amp;nbsp; &amp;nbsp;Contact&lt;/font&gt;" style="text;html=1;strokeColor=none;fillColor=#E1D5E7;align=center;verticalAlign=middle;whiteSpace=wrap;rounded=0;" parent="KsWRLZQ2symkS8kZ4Nw0-2" vertex="1">
          
          <mxGeometry x="10" y="220" width="1620" height="50" as="geometry" />
          
        </mxCell>
        
        <mxCell id="KsWRLZQ2symkS8kZ4Nw0-14" value="&lt;h1&gt;&lt;br&gt;&lt;/h1&gt;&lt;h1&gt;Makeup accessories&lt;/h1&gt;&lt;p&gt;Lorem ipsum dolor sit amet, consectetur adipisicing elit, sed do eiusmod tempor incididunt ut labore et dolore magna aliqua.&lt;/p&gt;" style="text;html=1;strokeColor=none;fillColor=none;spacing=5;spacingTop=-20;whiteSpace=wrap;overflow=hidden;rounded=0;align=center;" parent="KsWRLZQ2symkS8kZ4Nw0-2" vertex="1">
          
          <mxGeometry x="260" y="330" width="1200" height="260" as="geometry" />
          
        </mxCell>
        
        <mxCell id="KsWRLZQ2symkS8kZ4Nw0-16" value="" style="group" parent="KsWRLZQ2symkS8kZ4Nw0-2" vertex="1" connectable="0">
          
          <mxGeometry x="70" y="638" width="1480" height="1340" as="geometry" />
          
        </mxCell>
        
        <mxCell id="KsWRLZQ2symkS8kZ4Nw0-17" value="" style="verticalLabelPosition=bottom;shadow=0;dashed=0;align=center;html=1;verticalAlign=top;strokeWidth=1;shape=mxgraph.mockup.graphics.simpleIcon;strokeColor=#999999;fillColor=#ffffff;" parent="KsWRLZQ2symkS8kZ4Nw0-16" vertex="1">
          
          <mxGeometry width="370" height="335" as="geometry" />
          
        </mxCell>
        
        <mxCell id="KsWRLZQ2symkS8kZ4Nw0-18" value="" style="verticalLabelPosition=bottom;shadow=0;dashed=0;align=center;html=1;verticalAlign=top;strokeWidth=1;shape=mxgraph.mockup.graphics.simpleIcon;strokeColor=#999999;fillColor=#ffffff;" parent="KsWRLZQ2symkS8kZ4Nw0-16" vertex="1">
          
          <mxGeometry x="555" width="370" height="335" as="geometry" />
          
        </mxCell>
        
        <mxCell id="KsWRLZQ2symkS8kZ4Nw0-19" value="" style="verticalLabelPosition=bottom;shadow=0;dashed=0;align=center;html=1;verticalAlign=top;strokeWidth=1;shape=mxgraph.mockup.graphics.simpleIcon;strokeColor=#999999;fillColor=#ffffff;" parent="KsWRLZQ2symkS8kZ4Nw0-16" vertex="1">
          
          <mxGeometry x="1110" width="370" height="335" as="geometry" />
          
        </mxCell>
        
        <mxCell id="KsWRLZQ2symkS8kZ4Nw0-20" value="" style="verticalLabelPosition=bottom;shadow=0;dashed=0;align=center;html=1;verticalAlign=top;strokeWidth=1;shape=mxgraph.mockup.graphics.simpleIcon;strokeColor=#999999;fillColor=#ffffff;" parent="KsWRLZQ2symkS8kZ4Nw0-16" vertex="1">
          
          <mxGeometry y="502.50000000000006" width="370" height="335" as="geometry" />
          
        </mxCell>
        
        <mxCell id="KsWRLZQ2symkS8kZ4Nw0-21" value="" style="verticalLabelPosition=bottom;shadow=0;dashed=0;align=center;html=1;verticalAlign=top;strokeWidth=1;shape=mxgraph.mockup.graphics.simpleIcon;strokeColor=#999999;fillColor=#ffffff;" parent="KsWRLZQ2symkS8kZ4Nw0-16" vertex="1">
          
          <mxGeometry x="555" y="502.50000000000006" width="370" height="335" as="geometry" />
          
        </mxCell>
        
        <mxCell id="KsWRLZQ2symkS8kZ4Nw0-22" value="" style="verticalLabelPosition=bottom;shadow=0;dashed=0;align=center;html=1;verticalAlign=top;strokeWidth=1;shape=mxgraph.mockup.graphics.simpleIcon;strokeColor=#999999;fillColor=#ffffff;" parent="KsWRLZQ2symkS8kZ4Nw0-16" vertex="1">
          
          <mxGeometry x="1110" y="502.50000000000006" width="370" height="335" as="geometry" />
          
        </mxCell>
        
        <mxCell id="KsWRLZQ2symkS8kZ4Nw0-23" value="" style="verticalLabelPosition=bottom;shadow=0;dashed=0;align=center;html=1;verticalAlign=top;strokeWidth=1;shape=mxgraph.mockup.graphics.simpleIcon;strokeColor=#999999;fillColor=#ffffff;" parent="KsWRLZQ2symkS8kZ4Nw0-16" vertex="1">
          
          <mxGeometry y="1005.0000000000001" width="370" height="335" as="geometry" />
          
        </mxCell>
        
        <mxCell id="KsWRLZQ2symkS8kZ4Nw0-24" value="" style="verticalLabelPosition=bottom;shadow=0;dashed=0;align=center;html=1;verticalAlign=top;strokeWidth=1;shape=mxgraph.mockup.graphics.simpleIcon;strokeColor=#999999;fillColor=#ffffff;" parent="KsWRLZQ2symkS8kZ4Nw0-16" vertex="1">
          
          <mxGeometry x="555" y="1005.0000000000001" width="370" height="335" as="geometry" />
          
        </mxCell>
        
        <mxCell id="KsWRLZQ2symkS8kZ4Nw0-25" value="" style="verticalLabelPosition=bottom;shadow=0;dashed=0;align=center;html=1;verticalAlign=top;strokeWidth=1;shape=mxgraph.mockup.graphics.simpleIcon;strokeColor=#999999;fillColor=#ffffff;" parent="KsWRLZQ2symkS8kZ4Nw0-16" vertex="1">
          
          <mxGeometry x="1110" y="1005.0000000000001" width="370" height="335" as="geometry" />
          
        </mxCell>
        
        <mxCell id="KsWRLZQ2symkS8kZ4Nw0-26" value="" style="group" parent="KsWRLZQ2symkS8kZ4Nw0-2" vertex="1" connectable="0">
          
          <mxGeometry x="80" y="2208" width="1480" height="1340" as="geometry" />
          
        </mxCell>
        
        <mxCell id="KsWRLZQ2symkS8kZ4Nw0-27" value="" style="verticalLabelPosition=bottom;shadow=0;dashed=0;align=center;html=1;verticalAlign=top;strokeWidth=1;shape=mxgraph.mockup.graphics.simpleIcon;strokeColor=#999999;fillColor=#ffffff;" parent="KsWRLZQ2symkS8kZ4Nw0-26" vertex="1">
          
          <mxGeometry width="370" height="335" as="geometry" />
          
        </mxCell>
        
        <mxCell id="KsWRLZQ2symkS8kZ4Nw0-28" value="" style="verticalLabelPosition=bottom;shadow=0;dashed=0;align=center;html=1;verticalAlign=top;strokeWidth=1;shape=mxgraph.mockup.graphics.simpleIcon;strokeColor=#999999;fillColor=#ffffff;" parent="KsWRLZQ2symkS8kZ4Nw0-26" vertex="1">
          
          <mxGeometry x="555" width="370" height="335" as="geometry" />
          
        </mxCell>
        
        <mxCell id="KsWRLZQ2symkS8kZ4Nw0-29" value="" style="verticalLabelPosition=bottom;shadow=0;dashed=0;align=center;html=1;verticalAlign=top;strokeWidth=1;shape=mxgraph.mockup.graphics.simpleIcon;strokeColor=#999999;fillColor=#ffffff;" parent="KsWRLZQ2symkS8kZ4Nw0-26" vertex="1">
          
          <mxGeometry x="1110" width="370" height="335" as="geometry" />
          
        </mxCell>
        
        <mxCell id="KsWRLZQ2symkS8kZ4Nw0-30" value="" style="group" parent="KsWRLZQ2symkS8kZ4Nw0-26" vertex="1" connectable="0">
          
          <mxGeometry y="502.50000000000006" width="1480" height="837.5" as="geometry" />
          
        </mxCell>
        
        <mxCell id="KsWRLZQ2symkS8kZ4Nw0-31" value="" style="verticalLabelPosition=bottom;shadow=0;dashed=0;align=center;html=1;verticalAlign=top;strokeWidth=1;shape=mxgraph.mockup.graphics.simpleIcon;strokeColor=#999999;fillColor=#ffffff;" parent="KsWRLZQ2symkS8kZ4Nw0-30" vertex="1">
          
          <mxGeometry width="370" height="335" as="geometry" />
          
        </mxCell>
        
        <mxCell id="KsWRLZQ2symkS8kZ4Nw0-32" value="" style="verticalLabelPosition=bottom;shadow=0;dashed=0;align=center;html=1;verticalAlign=top;strokeWidth=1;shape=mxgraph.mockup.graphics.simpleIcon;strokeColor=#999999;fillColor=#ffffff;" parent="KsWRLZQ2symkS8kZ4Nw0-30" vertex="1">
          
          <mxGeometry x="555" width="370" height="335" as="geometry" />
          
        </mxCell>
        
        <mxCell id="KsWRLZQ2symkS8kZ4Nw0-33" value="" style="verticalLabelPosition=bottom;shadow=0;dashed=0;align=center;html=1;verticalAlign=top;strokeWidth=1;shape=mxgraph.mockup.graphics.simpleIcon;strokeColor=#999999;fillColor=#ffffff;" parent="KsWRLZQ2symkS8kZ4Nw0-30" vertex="1">
          
          <mxGeometry x="1110" width="370" height="335" as="geometry" />
          
        </mxCell>
        
        <mxCell id="KsWRLZQ2symkS8kZ4Nw0-34" value="" style="group" parent="KsWRLZQ2symkS8kZ4Nw0-30" vertex="1" connectable="0">
          
          <mxGeometry y="502.50000000000006" width="1480" height="334.99999999999994" as="geometry" />
          
        </mxCell>
        
        <mxCell id="KsWRLZQ2symkS8kZ4Nw0-35" value="" style="verticalLabelPosition=bottom;shadow=0;dashed=0;align=center;html=1;verticalAlign=top;strokeWidth=1;shape=mxgraph.mockup.graphics.simpleIcon;strokeColor=#999999;fillColor=#ffffff;" parent="KsWRLZQ2symkS8kZ4Nw0-34" vertex="1">
          
          <mxGeometry width="370" height="335" as="geometry" />
          
        </mxCell>
        
        <mxCell id="KsWRLZQ2symkS8kZ4Nw0-36" value="" style="verticalLabelPosition=bottom;shadow=0;dashed=0;align=center;html=1;verticalAlign=top;strokeWidth=1;shape=mxgraph.mockup.graphics.simpleIcon;strokeColor=#999999;fillColor=#ffffff;" parent="KsWRLZQ2symkS8kZ4Nw0-34" vertex="1">
          
          <mxGeometry x="555" width="370" height="335" as="geometry" />
          
        </mxCell>
        
        <mxCell id="KsWRLZQ2symkS8kZ4Nw0-37" value="" style="verticalLabelPosition=bottom;shadow=0;dashed=0;align=center;html=1;verticalAlign=top;strokeWidth=1;shape=mxgraph.mockup.graphics.simpleIcon;strokeColor=#999999;fillColor=#ffffff;" parent="KsWRLZQ2symkS8kZ4Nw0-34" vertex="1">
          
          <mxGeometry x="1110" width="370" height="335" as="geometry" />
          
        </mxCell>
        
        <mxCell id="KsWRLZQ2symkS8kZ4Nw0-38" value="" style="group" parent="KsWRLZQ2symkS8kZ4Nw0-30" vertex="1" connectable="0">
          
          <mxGeometry x="10" y="512.5" width="1480" height="334.99999999999994" as="geometry" />
          
        </mxCell>
        
        <mxCell id="KsWRLZQ2symkS8kZ4Nw0-39" value="" style="verticalLabelPosition=bottom;shadow=0;dashed=0;align=center;html=1;verticalAlign=top;strokeWidth=1;shape=mxgraph.mockup.graphics.simpleIcon;strokeColor=#999999;fillColor=#ffffff;" parent="KsWRLZQ2symkS8kZ4Nw0-38" vertex="1">
          
          <mxGeometry width="370" height="335" as="geometry" />
          
        </mxCell>
        
        <mxCell id="KsWRLZQ2symkS8kZ4Nw0-40" value="" style="verticalLabelPosition=bottom;shadow=0;dashed=0;align=center;html=1;verticalAlign=top;strokeWidth=1;shape=mxgraph.mockup.graphics.simpleIcon;strokeColor=#999999;fillColor=#ffffff;" parent="KsWRLZQ2symkS8kZ4Nw0-38" vertex="1">
          
          <mxGeometry x="555" width="370" height="335" as="geometry" />
          
        </mxCell>
        
        <mxCell id="KsWRLZQ2symkS8kZ4Nw0-41" value="" style="verticalLabelPosition=bottom;shadow=0;dashed=0;align=center;html=1;verticalAlign=top;strokeWidth=1;shape=mxgraph.mockup.graphics.simpleIcon;strokeColor=#999999;fillColor=#ffffff;" parent="KsWRLZQ2symkS8kZ4Nw0-38" vertex="1">
          
          <mxGeometry x="1110" width="370" height="335" as="geometry" />
          
        </mxCell>
        
        <mxCell id="KsWRLZQ2symkS8kZ4Nw0-42" value="" style="group" parent="KsWRLZQ2symkS8kZ4Nw0-2" vertex="1" connectable="0">
          
          <mxGeometry x="90" y="3640" width="1480" height="1340" as="geometry" />
          
        </mxCell>
        
        <mxCell id="KsWRLZQ2symkS8kZ4Nw0-43" value="" style="verticalLabelPosition=bottom;shadow=0;dashed=0;align=center;html=1;verticalAlign=top;strokeWidth=1;shape=mxgraph.mockup.graphics.simpleIcon;strokeColor=#999999;fillColor=#ffffff;" parent="KsWRLZQ2symkS8kZ4Nw0-42" vertex="1">
          
          <mxGeometry y="79" width="370" height="335" as="geometry" />
          
        </mxCell>
        
        <mxCell id="KsWRLZQ2symkS8kZ4Nw0-44" value="" style="verticalLabelPosition=bottom;shadow=0;dashed=0;align=center;html=1;verticalAlign=top;strokeWidth=1;shape=mxgraph.mockup.graphics.simpleIcon;strokeColor=#999999;fillColor=#ffffff;" parent="KsWRLZQ2symkS8kZ4Nw0-42" vertex="1">
          
          <mxGeometry x="555" y="79" width="370" height="335" as="geometry" />
          
        </mxCell>
        
        <mxCell id="KsWRLZQ2symkS8kZ4Nw0-45" value="" style="verticalLabelPosition=bottom;shadow=0;dashed=0;align=center;html=1;verticalAlign=top;strokeWidth=1;shape=mxgraph.mockup.graphics.simpleIcon;strokeColor=#999999;fillColor=#ffffff;" parent="KsWRLZQ2symkS8kZ4Nw0-42" vertex="1">
          
          <mxGeometry x="1110" y="79" width="370" height="335" as="geometry" />
          
        </mxCell>
        
        <mxCell id="KsWRLZQ2symkS8kZ4Nw0-46" value="" style="verticalLabelPosition=bottom;shadow=0;dashed=0;align=center;html=1;verticalAlign=top;strokeWidth=1;shape=mxgraph.mockup.graphics.simpleIcon;strokeColor=#999999;fillColor=#ffffff;" parent="KsWRLZQ2symkS8kZ4Nw0-42" vertex="1">
          
          <mxGeometry y="581.5" width="370" height="335" as="geometry" />
          
        </mxCell>
        
        <mxCell id="KsWRLZQ2symkS8kZ4Nw0-47" value="" style="verticalLabelPosition=bottom;shadow=0;dashed=0;align=center;html=1;verticalAlign=top;strokeWidth=1;shape=mxgraph.mockup.graphics.simpleIcon;strokeColor=#999999;fillColor=#ffffff;" parent="KsWRLZQ2symkS8kZ4Nw0-42" vertex="1">
          
          <mxGeometry x="555" y="581.5" width="370" height="335" as="geometry" />
          
        </mxCell>
        
        <mxCell id="KsWRLZQ2symkS8kZ4Nw0-48" value="" style="verticalLabelPosition=bottom;shadow=0;dashed=0;align=center;html=1;verticalAlign=top;strokeWidth=1;shape=mxgraph.mockup.graphics.simpleIcon;strokeColor=#999999;fillColor=#ffffff;" parent="KsWRLZQ2symkS8kZ4Nw0-42" vertex="1">
          
          <mxGeometry x="1110" y="581.5" width="370" height="335" as="geometry" />
          
        </mxCell>
        
        <mxCell id="BygTMVsyVbo2S3toSMHE-0" value="&lt;h1&gt;&lt;font style=&quot;font-size: 18px&quot;&gt;Useful &lt;/font&gt;&lt;font style=&quot;font-size: 18px&quot;&gt;Links!&lt;/font&gt;&lt;/h1&gt;&lt;div&gt;&lt;font style=&quot;font-size: 11px&quot;&gt;Coupons&lt;/font&gt;&lt;/div&gt;&lt;div&gt;&lt;font style=&quot;font-size: 11px&quot;&gt;Blog Post&lt;/font&gt;&lt;/div&gt;&lt;div&gt;&lt;font style=&quot;font-size: 11px&quot;&gt;Return Policy&lt;/font&gt;&lt;/div&gt;&lt;div&gt;&lt;font style=&quot;font-size: 11px&quot;&gt;Our Affiliate&lt;/font&gt;&lt;/div&gt;" style="text;html=1;strokeColor=none;fillColor=none;spacing=5;spacingTop=-20;whiteSpace=wrap;overflow=hidden;rounded=0;align=center;" parent="KsWRLZQ2symkS8kZ4Nw0-2" vertex="1">
          
          <mxGeometry x="813.5" y="4895" width="190" height="185" as="geometry" />
          
        </mxCell>
        
        <mxCell id="BygTMVsyVbo2S3toSMHE-1" value="&lt;h1&gt;&lt;font style=&quot;font-size: 11px&quot;&gt;Follow Us!!&lt;/font&gt;&lt;/h1&gt;&lt;div&gt;&lt;span style=&quot;font-size: 11px&quot;&gt;Facebook&lt;/span&gt;&lt;/div&gt;&lt;div&gt;&lt;span style=&quot;font-size: 11px&quot;&gt;Instagram&lt;/span&gt;&lt;/div&gt;&lt;div&gt;&lt;span style=&quot;font-size: 11px&quot;&gt;Linkedin&lt;/span&gt;&lt;/div&gt;&lt;div&gt;&lt;span style=&quot;font-size: 11px&quot;&gt;Twitter&lt;/span&gt;&lt;/div&gt;&lt;div&gt;&lt;span style=&quot;font-size: 11px&quot;&gt;Youtube&lt;/span&gt;&lt;/div&gt;&lt;div&gt;&lt;font style=&quot;font-size: 11px&quot;&gt;&lt;br&gt;&lt;/font&gt;&lt;/div&gt;" style="text;html=1;strokeColor=none;fillColor=none;spacing=5;spacingTop=-20;whiteSpace=wrap;overflow=hidden;rounded=0;align=center;" parent="KsWRLZQ2symkS8kZ4Nw0-2" vertex="1">
          
          <mxGeometry x="1260" y="4890" width="190" height="120" as="geometry" />
          
        </mxCell>
        
        <mxCell id="BygTMVsyVbo2S3toSMHE-2" value="" style="verticalLabelPosition=bottom;shadow=0;dashed=0;align=center;html=1;verticalAlign=top;strokeWidth=1;shape=mxgraph.mockup.forms.splitter;strokeColor=#999999;fillColor=#E6E6E6;" parent="KsWRLZQ2symkS8kZ4Nw0-2" vertex="1">
          
          <mxGeometry x="24" y="4890" width="1600" height="10" as="geometry" />
          
        </mxCell>
        
        <UserObject label="%date{ddd mmm dd yyyy HH:MM:ss}%" placeholders="1" id="BygTMVsyVbo2S3toSMHE-3">
          
          <mxCell style="text;html=1;strokeColor=none;fillColor=none;align=center;verticalAlign=middle;whiteSpace=wrap;overflow=hidden;" parent="KsWRLZQ2symkS8kZ4Nw0-2" vertex="1">
            
            <mxGeometry x="1423.5" y="4990" width="160" height="20" as="geometry" />
            
          </mxCell>
          
        </UserObject>
        
        <mxCell id="BygTMVsyVbo2S3toSMHE-4" value="" style="group" parent="KsWRLZQ2symkS8kZ4Nw0-2" vertex="1" connectable="0">
          
          <mxGeometry x="63.5" y="4890" width="250" height="120" as="geometry" />
          
        </mxCell>
        
        <mxCell id="BygTMVsyVbo2S3toSMHE-5" value="&lt;h1&gt;&lt;font style=&quot;font-size: 18px&quot;&gt;Download our App!&lt;/font&gt;&lt;/h1&gt;&lt;div&gt;&lt;font style=&quot;font-size: 11px&quot;&gt;Download App for Android and ios Mobile Phones.&lt;/font&gt;&lt;/div&gt;" style="text;html=1;strokeColor=none;fillColor=none;spacing=5;spacingTop=-20;whiteSpace=wrap;overflow=hidden;rounded=0;" parent="BygTMVsyVbo2S3toSMHE-4" vertex="1">
          
          <mxGeometry width="190" height="120" as="geometry" />
          
        </mxCell>
        
        <mxCell id="BygTMVsyVbo2S3toSMHE-6" value="" style="verticalLabelPosition=bottom;shadow=0;dashed=0;align=center;html=1;verticalAlign=top;strokeWidth=1;shape=mxgraph.mockup.graphics.simpleIcon;strokeColor=#999999;fillColor=#E6E6E6;" parent="BygTMVsyVbo2S3toSMHE-4" vertex="1">
          
          <mxGeometry y="79" width="120" height="40" as="geometry" />
          
        </mxCell>
        
        <mxCell id="BygTMVsyVbo2S3toSMHE-7" value="" style="verticalLabelPosition=bottom;shadow=0;dashed=0;align=center;html=1;verticalAlign=top;strokeWidth=1;shape=mxgraph.mockup.graphics.simpleIcon;strokeColor=#999999;fillColor=#E6E6E6;" parent="BygTMVsyVbo2S3toSMHE-4" vertex="1">
          
          <mxGeometry x="130" y="80" width="120" height="40" as="geometry" />
          
        </mxCell>
        
        <mxCell id="BygTMVsyVbo2S3toSMHE-8" value="&lt;font style=&quot;font-size: 14px&quot;&gt;&lt;b&gt;ios logo&lt;/b&gt;&lt;/font&gt;" style="text;html=1;strokeColor=none;fillColor=none;align=center;verticalAlign=middle;whiteSpace=wrap;rounded=0;" parent="BygTMVsyVbo2S3toSMHE-4" vertex="1">
          
          <mxGeometry y="85" width="120" height="30" as="geometry" />
          
        </mxCell>
        
        <mxCell id="BygTMVsyVbo2S3toSMHE-9" value="&lt;font style=&quot;font-size: 14px&quot;&gt;&lt;b&gt;Android Logo&lt;/b&gt;&lt;/font&gt;" style="text;html=1;strokeColor=none;fillColor=none;align=center;verticalAlign=middle;whiteSpace=wrap;rounded=0;" parent="BygTMVsyVbo2S3toSMHE-4" vertex="1">
          
          <mxGeometry x="130" y="85" width="120" height="30" as="geometry" />
          
        </mxCell>
        
        <mxCell id="9KtqYo4KnC4gQToMMHjE-0" value="&lt;&lt; Prev 1 2 3 4 5 6 7 8 9 10 Next &gt;&gt;" style="strokeWidth=1;shadow=0;dashed=0;align=center;html=1;shape=mxgraph.mockup.navigation.pagination;linkText=;fontSize=17;fontColor=#0000ff;fontStyle=4;fillColor=#E6E6E6;" parent="z899GwzV8BRNT4sWPu0R-0" vertex="1">
          
          <mxGeometry x="1246" y="4850" width="350" height="30" as="geometry" />
          
        </mxCell>
        
      </root>
      
    </mxGraphModel>
    
  </diagram>
  <diagram id="rPrD4zRyk6kMsKZ9R8zg" name="Page-4">
    
    <mxGraphModel dx="1108" dy="5126" grid="1" gridSize="10" guides="1" tooltips="1" connect="1" arrows="1" fold="1" page="1" pageScale="1" pageWidth="827" pageHeight="1169" math="0" shadow="0">
      
      <root>
        
        <mxCell id="Fc1iOcjc8Z-RYLFZpQPD-0" />
        
        <mxCell id="Fc1iOcjc8Z-RYLFZpQPD-1" parent="Fc1iOcjc8Z-RYLFZpQPD-0" />
        
        <mxCell id="mR1t4lIMivYhX0r409e9-0" value="" style="group" parent="Fc1iOcjc8Z-RYLFZpQPD-1" vertex="1" connectable="0">
          
          <mxGeometry x="10" y="-4660" width="1640" height="5040" as="geometry" />
          
        </mxCell>
        
        <mxCell id="Fc1iOcjc8Z-RYLFZpQPD-2" value="" style="strokeWidth=1;shadow=0;dashed=0;align=center;html=1;shape=mxgraph.mockup.containers.browserWindow;rSize=0;strokeColor=#666666;strokeColor2=#008cff;strokeColor3=#c4c4c4;mainText=,;recursiveResize=0;fillColor=#FFFFFF;" parent="mR1t4lIMivYhX0r409e9-0" vertex="1">
          
          <mxGeometry width="1640" height="5040" as="geometry" />
          
        </mxCell>
        
        <mxCell id="Fc1iOcjc8Z-RYLFZpQPD-3" value="Page 1" style="strokeWidth=1;shadow=0;dashed=0;align=center;html=1;shape=mxgraph.mockup.containers.anchor;fontSize=17;fontColor=#666666;align=left;" parent="Fc1iOcjc8Z-RYLFZpQPD-2" vertex="1">
          
          <mxGeometry x="60" y="12" width="110" height="26" as="geometry" />
          
        </mxCell>
        
        <mxCell id="Fc1iOcjc8Z-RYLFZpQPD-4" value="www.mimysbeautelouche.com" style="strokeWidth=1;shadow=0;dashed=0;align=center;html=1;shape=mxgraph.mockup.containers.anchor;rSize=0;fontSize=17;fontColor=#666666;align=left;" parent="Fc1iOcjc8Z-RYLFZpQPD-2" vertex="1">
          
          <mxGeometry x="130" y="60" width="250" height="26" as="geometry" />
          
        </mxCell>
        
        <mxCell id="Fc1iOcjc8Z-RYLFZpQPD-5" value="" style="verticalLabelPosition=bottom;shadow=0;dashed=0;align=center;html=1;verticalAlign=top;strokeWidth=1;shape=mxgraph.mockup.graphics.simpleIcon;strokeColor=#999999;" parent="Fc1iOcjc8Z-RYLFZpQPD-2" vertex="1">
          
          <mxGeometry x="10" y="120" width="120" height="100" as="geometry" />
          
        </mxCell>
        
        <mxCell id="Fc1iOcjc8Z-RYLFZpQPD-6" value="&lt;font style=&quot;font-size: 18px&quot;&gt;&lt;b&gt;Logo&lt;/b&gt;&lt;/font&gt;" style="text;html=1;strokeColor=none;fillColor=none;align=center;verticalAlign=middle;whiteSpace=wrap;rounded=0;" parent="Fc1iOcjc8Z-RYLFZpQPD-2" vertex="1">
          
          <mxGeometry x="50" y="160" width="40" height="20" as="geometry" />
          
        </mxCell>
        
        <mxCell id="Fc1iOcjc8Z-RYLFZpQPD-7" value="&lt;font style=&quot;font-size: 18px&quot; face=&quot;Comic Sans MS&quot;&gt;&lt;b&gt;Mimys Hair &amp;amp; Beaute&#39; Louche&lt;/b&gt;&lt;/font&gt;" style="text;html=1;strokeColor=none;fillColor=none;align=center;verticalAlign=middle;whiteSpace=wrap;rounded=0;" parent="Fc1iOcjc8Z-RYLFZpQPD-2" vertex="1">
          
          <mxGeometry x="40" y="140" width="450" height="60" as="geometry" />
          
        </mxCell>
        
        <mxCell id="Fc1iOcjc8Z-RYLFZpQPD-8" value="" style="shape=rect;fillColor=#F6F6F6;strokeColor=none;" parent="Fc1iOcjc8Z-RYLFZpQPD-2" vertex="1">
          
          <mxGeometry x="1466" y="180" width="164" height="30" as="geometry" />
          
        </mxCell>
        
        <mxCell id="Fc1iOcjc8Z-RYLFZpQPD-9" value="Search" style="shape=mxgraph.ios7.icons.looking_glass;strokeColor=#878789;fillColor=none;fontColor=#878789;labelPosition=right;verticalLabelPosition=middle;align=left;verticalAlign=middle;fontSize=6;fontStyle=0;spacingTop=2;" parent="Fc1iOcjc8Z-RYLFZpQPD-8" vertex="1">
          
          <mxGeometry x="0.5" y="0.5" width="6" height="6" relative="1" as="geometry">
            
            <mxPoint x="-17" y="-3" as="offset" />
            
          </mxGeometry>
          
        </mxCell>
        
        <mxCell id="Fc1iOcjc8Z-RYLFZpQPD-10" value="&lt;font style=&quot;font-size: 24px&quot; face=&quot;Tahoma&quot;&gt;Home&amp;nbsp; &amp;nbsp; &amp;nbsp; &amp;nbsp; &amp;nbsp; &amp;nbsp;Hair&amp;nbsp; &amp;nbsp; &amp;nbsp; &amp;nbsp; &amp;nbsp; Makeup&amp;nbsp; &amp;nbsp; &amp;nbsp; &amp;nbsp; &amp;nbsp; &amp;nbsp;Skincare&amp;nbsp; &amp;nbsp; &amp;nbsp; &amp;nbsp; &amp;nbsp; &amp;nbsp; Haircare&amp;nbsp; &amp;nbsp; &amp;nbsp; &amp;nbsp; &amp;nbsp; &amp;nbsp; &amp;nbsp;Men&amp;nbsp; &amp;nbsp; &amp;nbsp; &amp;nbsp; &amp;nbsp; Babies&amp;nbsp; &amp;nbsp; &amp;nbsp; &amp;nbsp; Contact&lt;/font&gt;" style="text;html=1;strokeColor=none;fillColor=#E1D5E7;align=center;verticalAlign=middle;whiteSpace=wrap;rounded=0;" parent="Fc1iOcjc8Z-RYLFZpQPD-2" vertex="1">
          
          <mxGeometry x="10" y="220" width="1620" height="50" as="geometry" />
          
        </mxCell>
        
        <mxCell id="Fc1iOcjc8Z-RYLFZpQPD-14" value="&lt;h1&gt;&lt;br&gt;&lt;/h1&gt;&lt;h1&gt;Skin &amp;amp; Haircare Accessories&lt;/h1&gt;&lt;p&gt;Lorem ipsum dolor sit amet, consectetur adipisicing elit, sed do eiusmod tempor incididunt ut labore et dolore magna aliqua.&lt;/p&gt;" style="text;html=1;strokeColor=none;fillColor=none;spacing=5;spacingTop=-20;whiteSpace=wrap;overflow=hidden;rounded=0;align=center;" parent="Fc1iOcjc8Z-RYLFZpQPD-2" vertex="1">
          
          <mxGeometry x="260" y="330" width="1200" height="260" as="geometry" />
          
        </mxCell>
        
        <mxCell id="Fc1iOcjc8Z-RYLFZpQPD-16" value="" style="group" parent="Fc1iOcjc8Z-RYLFZpQPD-2" vertex="1" connectable="0">
          
          <mxGeometry x="70" y="638" width="1480" height="1340" as="geometry" />
          
        </mxCell>
        
        <mxCell id="Fc1iOcjc8Z-RYLFZpQPD-17" value="" style="verticalLabelPosition=bottom;shadow=0;dashed=0;align=center;html=1;verticalAlign=top;strokeWidth=1;shape=mxgraph.mockup.graphics.simpleIcon;strokeColor=#999999;fillColor=#ffffff;" parent="Fc1iOcjc8Z-RYLFZpQPD-16" vertex="1">
          
          <mxGeometry width="370" height="335" as="geometry" />
          
        </mxCell>
        
        <mxCell id="Fc1iOcjc8Z-RYLFZpQPD-18" value="" style="verticalLabelPosition=bottom;shadow=0;dashed=0;align=center;html=1;verticalAlign=top;strokeWidth=1;shape=mxgraph.mockup.graphics.simpleIcon;strokeColor=#999999;fillColor=#ffffff;" parent="Fc1iOcjc8Z-RYLFZpQPD-16" vertex="1">
          
          <mxGeometry x="555" width="370" height="335" as="geometry" />
          
        </mxCell>
        
        <mxCell id="Fc1iOcjc8Z-RYLFZpQPD-19" value="" style="verticalLabelPosition=bottom;shadow=0;dashed=0;align=center;html=1;verticalAlign=top;strokeWidth=1;shape=mxgraph.mockup.graphics.simpleIcon;strokeColor=#999999;fillColor=#ffffff;" parent="Fc1iOcjc8Z-RYLFZpQPD-16" vertex="1">
          
          <mxGeometry x="1110" width="370" height="335" as="geometry" />
          
        </mxCell>
        
        <mxCell id="Fc1iOcjc8Z-RYLFZpQPD-20" value="" style="verticalLabelPosition=bottom;shadow=0;dashed=0;align=center;html=1;verticalAlign=top;strokeWidth=1;shape=mxgraph.mockup.graphics.simpleIcon;strokeColor=#999999;fillColor=#ffffff;" parent="Fc1iOcjc8Z-RYLFZpQPD-16" vertex="1">
          
          <mxGeometry y="502.50000000000006" width="370" height="335" as="geometry" />
          
        </mxCell>
        
        <mxCell id="Fc1iOcjc8Z-RYLFZpQPD-21" value="" style="verticalLabelPosition=bottom;shadow=0;dashed=0;align=center;html=1;verticalAlign=top;strokeWidth=1;shape=mxgraph.mockup.graphics.simpleIcon;strokeColor=#999999;fillColor=#ffffff;" parent="Fc1iOcjc8Z-RYLFZpQPD-16" vertex="1">
          
          <mxGeometry x="555" y="502.50000000000006" width="370" height="335" as="geometry" />
          
        </mxCell>
        
        <mxCell id="Fc1iOcjc8Z-RYLFZpQPD-22" value="" style="verticalLabelPosition=bottom;shadow=0;dashed=0;align=center;html=1;verticalAlign=top;strokeWidth=1;shape=mxgraph.mockup.graphics.simpleIcon;strokeColor=#999999;fillColor=#ffffff;" parent="Fc1iOcjc8Z-RYLFZpQPD-16" vertex="1">
          
          <mxGeometry x="1110" y="502.50000000000006" width="370" height="335" as="geometry" />
          
        </mxCell>
        
        <mxCell id="Fc1iOcjc8Z-RYLFZpQPD-23" value="" style="verticalLabelPosition=bottom;shadow=0;dashed=0;align=center;html=1;verticalAlign=top;strokeWidth=1;shape=mxgraph.mockup.graphics.simpleIcon;strokeColor=#999999;fillColor=#ffffff;" parent="Fc1iOcjc8Z-RYLFZpQPD-16" vertex="1">
          
          <mxGeometry y="1005.0000000000001" width="370" height="335" as="geometry" />
          
        </mxCell>
        
        <mxCell id="Fc1iOcjc8Z-RYLFZpQPD-24" value="" style="verticalLabelPosition=bottom;shadow=0;dashed=0;align=center;html=1;verticalAlign=top;strokeWidth=1;shape=mxgraph.mockup.graphics.simpleIcon;strokeColor=#999999;fillColor=#ffffff;" parent="Fc1iOcjc8Z-RYLFZpQPD-16" vertex="1">
          
          <mxGeometry x="555" y="1005.0000000000001" width="370" height="335" as="geometry" />
          
        </mxCell>
        
        <mxCell id="Fc1iOcjc8Z-RYLFZpQPD-25" value="" style="verticalLabelPosition=bottom;shadow=0;dashed=0;align=center;html=1;verticalAlign=top;strokeWidth=1;shape=mxgraph.mockup.graphics.simpleIcon;strokeColor=#999999;fillColor=#ffffff;" parent="Fc1iOcjc8Z-RYLFZpQPD-16" vertex="1">
          
          <mxGeometry x="1110" y="1005.0000000000001" width="370" height="335" as="geometry" />
          
        </mxCell>
        
        <mxCell id="Fc1iOcjc8Z-RYLFZpQPD-26" value="" style="group" parent="Fc1iOcjc8Z-RYLFZpQPD-2" vertex="1" connectable="0">
          
          <mxGeometry x="80" y="2208" width="1480" height="1340" as="geometry" />
          
        </mxCell>
        
        <mxCell id="Fc1iOcjc8Z-RYLFZpQPD-27" value="" style="verticalLabelPosition=bottom;shadow=0;dashed=0;align=center;html=1;verticalAlign=top;strokeWidth=1;shape=mxgraph.mockup.graphics.simpleIcon;strokeColor=#999999;fillColor=#ffffff;" parent="Fc1iOcjc8Z-RYLFZpQPD-26" vertex="1">
          
          <mxGeometry width="370" height="335" as="geometry" />
          
        </mxCell>
        
        <mxCell id="Fc1iOcjc8Z-RYLFZpQPD-28" value="" style="verticalLabelPosition=bottom;shadow=0;dashed=0;align=center;html=1;verticalAlign=top;strokeWidth=1;shape=mxgraph.mockup.graphics.simpleIcon;strokeColor=#999999;fillColor=#ffffff;" parent="Fc1iOcjc8Z-RYLFZpQPD-26" vertex="1">
          
          <mxGeometry x="555" width="370" height="335" as="geometry" />
          
        </mxCell>
        
        <mxCell id="Fc1iOcjc8Z-RYLFZpQPD-29" value="" style="verticalLabelPosition=bottom;shadow=0;dashed=0;align=center;html=1;verticalAlign=top;strokeWidth=1;shape=mxgraph.mockup.graphics.simpleIcon;strokeColor=#999999;fillColor=#ffffff;" parent="Fc1iOcjc8Z-RYLFZpQPD-26" vertex="1">
          
          <mxGeometry x="1110" width="370" height="335" as="geometry" />
          
        </mxCell>
        
        <mxCell id="Fc1iOcjc8Z-RYLFZpQPD-30" value="" style="group" parent="Fc1iOcjc8Z-RYLFZpQPD-26" vertex="1" connectable="0">
          
          <mxGeometry y="502.50000000000006" width="1480" height="837.5" as="geometry" />
          
        </mxCell>
        
        <mxCell id="Fc1iOcjc8Z-RYLFZpQPD-31" value="" style="verticalLabelPosition=bottom;shadow=0;dashed=0;align=center;html=1;verticalAlign=top;strokeWidth=1;shape=mxgraph.mockup.graphics.simpleIcon;strokeColor=#999999;fillColor=#ffffff;" parent="Fc1iOcjc8Z-RYLFZpQPD-30" vertex="1">
          
          <mxGeometry width="370" height="335" as="geometry" />
          
        </mxCell>
        
        <mxCell id="Fc1iOcjc8Z-RYLFZpQPD-32" value="" style="verticalLabelPosition=bottom;shadow=0;dashed=0;align=center;html=1;verticalAlign=top;strokeWidth=1;shape=mxgraph.mockup.graphics.simpleIcon;strokeColor=#999999;fillColor=#ffffff;" parent="Fc1iOcjc8Z-RYLFZpQPD-30" vertex="1">
          
          <mxGeometry x="555" width="370" height="335" as="geometry" />
          
        </mxCell>
        
        <mxCell id="Fc1iOcjc8Z-RYLFZpQPD-33" value="" style="verticalLabelPosition=bottom;shadow=0;dashed=0;align=center;html=1;verticalAlign=top;strokeWidth=1;shape=mxgraph.mockup.graphics.simpleIcon;strokeColor=#999999;fillColor=#ffffff;" parent="Fc1iOcjc8Z-RYLFZpQPD-30" vertex="1">
          
          <mxGeometry x="1110" width="370" height="335" as="geometry" />
          
        </mxCell>
        
        <mxCell id="Fc1iOcjc8Z-RYLFZpQPD-34" value="" style="group" parent="Fc1iOcjc8Z-RYLFZpQPD-30" vertex="1" connectable="0">
          
          <mxGeometry y="502.50000000000006" width="1480" height="334.99999999999994" as="geometry" />
          
        </mxCell>
        
        <mxCell id="Fc1iOcjc8Z-RYLFZpQPD-35" value="" style="verticalLabelPosition=bottom;shadow=0;dashed=0;align=center;html=1;verticalAlign=top;strokeWidth=1;shape=mxgraph.mockup.graphics.simpleIcon;strokeColor=#999999;fillColor=#ffffff;" parent="Fc1iOcjc8Z-RYLFZpQPD-34" vertex="1">
          
          <mxGeometry width="370" height="335" as="geometry" />
          
        </mxCell>
        
        <mxCell id="Fc1iOcjc8Z-RYLFZpQPD-36" value="" style="verticalLabelPosition=bottom;shadow=0;dashed=0;align=center;html=1;verticalAlign=top;strokeWidth=1;shape=mxgraph.mockup.graphics.simpleIcon;strokeColor=#999999;fillColor=#ffffff;" parent="Fc1iOcjc8Z-RYLFZpQPD-34" vertex="1">
          
          <mxGeometry x="555" width="370" height="335" as="geometry" />
          
        </mxCell>
        
        <mxCell id="Fc1iOcjc8Z-RYLFZpQPD-37" value="" style="verticalLabelPosition=bottom;shadow=0;dashed=0;align=center;html=1;verticalAlign=top;strokeWidth=1;shape=mxgraph.mockup.graphics.simpleIcon;strokeColor=#999999;fillColor=#ffffff;" parent="Fc1iOcjc8Z-RYLFZpQPD-34" vertex="1">
          
          <mxGeometry x="1110" width="370" height="335" as="geometry" />
          
        </mxCell>
        
        <mxCell id="Fc1iOcjc8Z-RYLFZpQPD-38" value="" style="group" parent="Fc1iOcjc8Z-RYLFZpQPD-30" vertex="1" connectable="0">
          
          <mxGeometry x="10" y="512.5" width="1480" height="334.99999999999994" as="geometry" />
          
        </mxCell>
        
        <mxCell id="Fc1iOcjc8Z-RYLFZpQPD-39" value="" style="verticalLabelPosition=bottom;shadow=0;dashed=0;align=center;html=1;verticalAlign=top;strokeWidth=1;shape=mxgraph.mockup.graphics.simpleIcon;strokeColor=#999999;fillColor=#ffffff;" parent="Fc1iOcjc8Z-RYLFZpQPD-38" vertex="1">
          
          <mxGeometry width="370" height="335" as="geometry" />
          
        </mxCell>
        
        <mxCell id="Fc1iOcjc8Z-RYLFZpQPD-40" value="" style="verticalLabelPosition=bottom;shadow=0;dashed=0;align=center;html=1;verticalAlign=top;strokeWidth=1;shape=mxgraph.mockup.graphics.simpleIcon;strokeColor=#999999;fillColor=#ffffff;" parent="Fc1iOcjc8Z-RYLFZpQPD-38" vertex="1">
          
          <mxGeometry x="555" width="370" height="335" as="geometry" />
          
        </mxCell>
        
        <mxCell id="Fc1iOcjc8Z-RYLFZpQPD-41" value="" style="verticalLabelPosition=bottom;shadow=0;dashed=0;align=center;html=1;verticalAlign=top;strokeWidth=1;shape=mxgraph.mockup.graphics.simpleIcon;strokeColor=#999999;fillColor=#ffffff;" parent="Fc1iOcjc8Z-RYLFZpQPD-38" vertex="1">
          
          <mxGeometry x="1110" width="370" height="335" as="geometry" />
          
        </mxCell>
        
        <mxCell id="Fc1iOcjc8Z-RYLFZpQPD-42" value="" style="group" parent="Fc1iOcjc8Z-RYLFZpQPD-2" vertex="1" connectable="0">
          
          <mxGeometry x="90" y="3640" width="1480" height="1340" as="geometry" />
          
        </mxCell>
        
        <mxCell id="Fc1iOcjc8Z-RYLFZpQPD-43" value="" style="verticalLabelPosition=bottom;shadow=0;dashed=0;align=center;html=1;verticalAlign=top;strokeWidth=1;shape=mxgraph.mockup.graphics.simpleIcon;strokeColor=#999999;fillColor=#ffffff;" parent="Fc1iOcjc8Z-RYLFZpQPD-42" vertex="1">
          
          <mxGeometry y="79" width="370" height="335" as="geometry" />
          
        </mxCell>
        
        <mxCell id="Fc1iOcjc8Z-RYLFZpQPD-44" value="" style="verticalLabelPosition=bottom;shadow=0;dashed=0;align=center;html=1;verticalAlign=top;strokeWidth=1;shape=mxgraph.mockup.graphics.simpleIcon;strokeColor=#999999;fillColor=#ffffff;" parent="Fc1iOcjc8Z-RYLFZpQPD-42" vertex="1">
          
          <mxGeometry x="555" y="79" width="370" height="335" as="geometry" />
          
        </mxCell>
        
        <mxCell id="Fc1iOcjc8Z-RYLFZpQPD-45" value="" style="verticalLabelPosition=bottom;shadow=0;dashed=0;align=center;html=1;verticalAlign=top;strokeWidth=1;shape=mxgraph.mockup.graphics.simpleIcon;strokeColor=#999999;fillColor=#ffffff;" parent="Fc1iOcjc8Z-RYLFZpQPD-42" vertex="1">
          
          <mxGeometry x="1110" y="79" width="370" height="335" as="geometry" />
          
        </mxCell>
        
        <mxCell id="Fc1iOcjc8Z-RYLFZpQPD-46" value="" style="verticalLabelPosition=bottom;shadow=0;dashed=0;align=center;html=1;verticalAlign=top;strokeWidth=1;shape=mxgraph.mockup.graphics.simpleIcon;strokeColor=#999999;fillColor=#ffffff;" parent="Fc1iOcjc8Z-RYLFZpQPD-42" vertex="1">
          
          <mxGeometry y="581.5" width="370" height="335" as="geometry" />
          
        </mxCell>
        
        <mxCell id="Fc1iOcjc8Z-RYLFZpQPD-47" value="" style="verticalLabelPosition=bottom;shadow=0;dashed=0;align=center;html=1;verticalAlign=top;strokeWidth=1;shape=mxgraph.mockup.graphics.simpleIcon;strokeColor=#999999;fillColor=#ffffff;" parent="Fc1iOcjc8Z-RYLFZpQPD-42" vertex="1">
          
          <mxGeometry x="555" y="581.5" width="370" height="335" as="geometry" />
          
        </mxCell>
        
        <mxCell id="Fc1iOcjc8Z-RYLFZpQPD-48" value="" style="verticalLabelPosition=bottom;shadow=0;dashed=0;align=center;html=1;verticalAlign=top;strokeWidth=1;shape=mxgraph.mockup.graphics.simpleIcon;strokeColor=#999999;fillColor=#ffffff;" parent="Fc1iOcjc8Z-RYLFZpQPD-42" vertex="1">
          
          <mxGeometry x="1110" y="581.5" width="370" height="335" as="geometry" />
          
        </mxCell>
        
        <mxCell id="T8vo_4Sy94zTSlNS00O3-0" value="&lt;h1&gt;&lt;font style=&quot;font-size: 18px&quot;&gt;Useful &lt;/font&gt;&lt;font style=&quot;font-size: 18px&quot;&gt;Links!&lt;/font&gt;&lt;/h1&gt;&lt;div&gt;&lt;font style=&quot;font-size: 11px&quot;&gt;Coupons&lt;/font&gt;&lt;/div&gt;&lt;div&gt;&lt;font style=&quot;font-size: 11px&quot;&gt;Blog Post&lt;/font&gt;&lt;/div&gt;&lt;div&gt;&lt;font style=&quot;font-size: 11px&quot;&gt;Return Policy&lt;/font&gt;&lt;/div&gt;&lt;div&gt;&lt;font style=&quot;font-size: 11px&quot;&gt;Our Affiliate&lt;/font&gt;&lt;/div&gt;" style="text;html=1;strokeColor=none;fillColor=none;spacing=5;spacingTop=-20;whiteSpace=wrap;overflow=hidden;rounded=0;align=center;" parent="Fc1iOcjc8Z-RYLFZpQPD-2" vertex="1">
          
          <mxGeometry x="813.5" y="4905" width="190" height="185" as="geometry" />
          
        </mxCell>
        
        <mxCell id="T8vo_4Sy94zTSlNS00O3-1" value="&lt;h1&gt;&lt;font style=&quot;font-size: 11px&quot;&gt;Follow Us!!&lt;/font&gt;&lt;/h1&gt;&lt;div&gt;&lt;span style=&quot;font-size: 11px&quot;&gt;Facebook&lt;/span&gt;&lt;/div&gt;&lt;div&gt;&lt;span style=&quot;font-size: 11px&quot;&gt;Instagram&lt;/span&gt;&lt;/div&gt;&lt;div&gt;&lt;span style=&quot;font-size: 11px&quot;&gt;Linkedin&lt;/span&gt;&lt;/div&gt;&lt;div&gt;&lt;span style=&quot;font-size: 11px&quot;&gt;Twitter&lt;/span&gt;&lt;/div&gt;&lt;div&gt;&lt;span style=&quot;font-size: 11px&quot;&gt;Youtube&lt;/span&gt;&lt;/div&gt;&lt;div&gt;&lt;font style=&quot;font-size: 11px&quot;&gt;&lt;br&gt;&lt;/font&gt;&lt;/div&gt;" style="text;html=1;strokeColor=none;fillColor=none;spacing=5;spacingTop=-20;whiteSpace=wrap;overflow=hidden;rounded=0;align=center;" parent="Fc1iOcjc8Z-RYLFZpQPD-2" vertex="1">
          
          <mxGeometry x="1260" y="4900" width="190" height="120" as="geometry" />
          
        </mxCell>
        
        <mxCell id="T8vo_4Sy94zTSlNS00O3-2" value="" style="verticalLabelPosition=bottom;shadow=0;dashed=0;align=center;html=1;verticalAlign=top;strokeWidth=1;shape=mxgraph.mockup.forms.splitter;strokeColor=#999999;fillColor=#E6E6E6;" parent="Fc1iOcjc8Z-RYLFZpQPD-2" vertex="1">
          
          <mxGeometry x="24" y="4900" width="1600" height="10" as="geometry" />
          
        </mxCell>
        
        <UserObject label="%date{ddd mmm dd yyyy HH:MM:ss}%" placeholders="1" id="T8vo_4Sy94zTSlNS00O3-3">
          
          <mxCell style="text;html=1;strokeColor=none;fillColor=none;align=center;verticalAlign=middle;whiteSpace=wrap;overflow=hidden;" parent="Fc1iOcjc8Z-RYLFZpQPD-2" vertex="1">
            
            <mxGeometry x="1423.5" y="5000" width="160" height="20" as="geometry" />
            
          </mxCell>
          
        </UserObject>
        
        <mxCell id="T8vo_4Sy94zTSlNS00O3-4" value="" style="group" parent="Fc1iOcjc8Z-RYLFZpQPD-2" vertex="1" connectable="0">
          
          <mxGeometry x="63.5" y="4900" width="250" height="120" as="geometry" />
          
        </mxCell>
        
        <mxCell id="T8vo_4Sy94zTSlNS00O3-5" value="&lt;h1&gt;&lt;font style=&quot;font-size: 18px&quot;&gt;Download our App!&lt;/font&gt;&lt;/h1&gt;&lt;div&gt;&lt;font style=&quot;font-size: 11px&quot;&gt;Download App for Android and ios Mobile Phones.&lt;/font&gt;&lt;/div&gt;" style="text;html=1;strokeColor=none;fillColor=none;spacing=5;spacingTop=-20;whiteSpace=wrap;overflow=hidden;rounded=0;" parent="T8vo_4Sy94zTSlNS00O3-4" vertex="1">
          
          <mxGeometry width="190" height="120" as="geometry" />
          
        </mxCell>
        
        <mxCell id="T8vo_4Sy94zTSlNS00O3-6" value="" style="verticalLabelPosition=bottom;shadow=0;dashed=0;align=center;html=1;verticalAlign=top;strokeWidth=1;shape=mxgraph.mockup.graphics.simpleIcon;strokeColor=#999999;fillColor=#E6E6E6;" parent="T8vo_4Sy94zTSlNS00O3-4" vertex="1">
          
          <mxGeometry y="79" width="120" height="40" as="geometry" />
          
        </mxCell>
        
        <mxCell id="T8vo_4Sy94zTSlNS00O3-7" value="" style="verticalLabelPosition=bottom;shadow=0;dashed=0;align=center;html=1;verticalAlign=top;strokeWidth=1;shape=mxgraph.mockup.graphics.simpleIcon;strokeColor=#999999;fillColor=#E6E6E6;" parent="T8vo_4Sy94zTSlNS00O3-4" vertex="1">
          
          <mxGeometry x="130" y="80" width="120" height="40" as="geometry" />
          
        </mxCell>
        
        <mxCell id="T8vo_4Sy94zTSlNS00O3-8" value="&lt;font style=&quot;font-size: 14px&quot;&gt;&lt;b&gt;ios logo&lt;/b&gt;&lt;/font&gt;" style="text;html=1;strokeColor=none;fillColor=none;align=center;verticalAlign=middle;whiteSpace=wrap;rounded=0;" parent="T8vo_4Sy94zTSlNS00O3-4" vertex="1">
          
          <mxGeometry y="85" width="120" height="30" as="geometry" />
          
        </mxCell>
        
        <mxCell id="T8vo_4Sy94zTSlNS00O3-9" value="&lt;font style=&quot;font-size: 14px&quot;&gt;&lt;b&gt;Android Logo&lt;/b&gt;&lt;/font&gt;" style="text;html=1;strokeColor=none;fillColor=none;align=center;verticalAlign=middle;whiteSpace=wrap;rounded=0;" parent="T8vo_4Sy94zTSlNS00O3-4" vertex="1">
          
          <mxGeometry x="130" y="85" width="120" height="30" as="geometry" />
          
        </mxCell>
        
        <mxCell id="FiMCQUYfRxnjmGWKccfd-0" value="&lt;&lt; Prev 1 2 3 4 5 6 7 8 9 10 Next &gt;&gt;" style="strokeWidth=1;shadow=0;dashed=0;align=center;html=1;shape=mxgraph.mockup.navigation.pagination;linkText=;fontSize=17;fontColor=#0000ff;fontStyle=4;fillColor=#E6E6E6;" parent="mR1t4lIMivYhX0r409e9-0" vertex="1">
          
          <mxGeometry x="1246" y="4850" width="350" height="30" as="geometry" />
          
        </mxCell>
        
      </root>
      
    </mxGraphModel>
    
  </diagram>
  <diagram id="IwyD2SYu9_IgAuT-cL4X" name="Page-5">
    
    <mxGraphModel dx="1108" dy="5126" grid="1" gridSize="10" guides="1" tooltips="1" connect="1" arrows="1" fold="1" page="1" pageScale="1" pageWidth="827" pageHeight="1169" math="0" shadow="0">
      
      <root>
        
        <mxCell id="BZ05G66fjLXyWbwe9hux-0" />
        
        <mxCell id="BZ05G66fjLXyWbwe9hux-1" parent="BZ05G66fjLXyWbwe9hux-0" />
        
        <mxCell id="DrXt4AJTWlFrryYzW2Dw-0" value="" style="group" parent="BZ05G66fjLXyWbwe9hux-1" vertex="1" connectable="0">
          
          <mxGeometry x="10" y="-4660" width="1640" height="5040" as="geometry" />
          
        </mxCell>
        
        <mxCell id="BZ05G66fjLXyWbwe9hux-2" value="G" style="strokeWidth=1;shadow=0;dashed=0;align=center;html=1;shape=mxgraph.mockup.containers.browserWindow;rSize=0;strokeColor=#666666;strokeColor2=#008cff;strokeColor3=#c4c4c4;mainText=,;recursiveResize=0;fillColor=#FFFFFF;" parent="DrXt4AJTWlFrryYzW2Dw-0" vertex="1">
          
          <mxGeometry width="1640" height="5040" as="geometry" />
          
        </mxCell>
        
        <mxCell id="BZ05G66fjLXyWbwe9hux-3" value="Page 1" style="strokeWidth=1;shadow=0;dashed=0;align=center;html=1;shape=mxgraph.mockup.containers.anchor;fontSize=17;fontColor=#666666;align=left;" parent="BZ05G66fjLXyWbwe9hux-2" vertex="1">
          
          <mxGeometry x="60" y="12" width="110" height="26" as="geometry" />
          
        </mxCell>
        
        <mxCell id="BZ05G66fjLXyWbwe9hux-4" value="www.mimysbeautelouche.com" style="strokeWidth=1;shadow=0;dashed=0;align=center;html=1;shape=mxgraph.mockup.containers.anchor;rSize=0;fontSize=17;fontColor=#666666;align=left;" parent="BZ05G66fjLXyWbwe9hux-2" vertex="1">
          
          <mxGeometry x="130" y="60" width="250" height="26" as="geometry" />
          
        </mxCell>
        
        <mxCell id="BZ05G66fjLXyWbwe9hux-5" value="" style="verticalLabelPosition=bottom;shadow=0;dashed=0;align=center;html=1;verticalAlign=top;strokeWidth=1;shape=mxgraph.mockup.graphics.simpleIcon;strokeColor=#999999;" parent="BZ05G66fjLXyWbwe9hux-2" vertex="1">
          
          <mxGeometry x="10" y="120" width="120" height="100" as="geometry" />
          
        </mxCell>
        
        <mxCell id="BZ05G66fjLXyWbwe9hux-6" value="&lt;font style=&quot;font-size: 18px&quot;&gt;&lt;b&gt;Logo&lt;/b&gt;&lt;/font&gt;" style="text;html=1;strokeColor=none;fillColor=none;align=center;verticalAlign=middle;whiteSpace=wrap;rounded=0;" parent="BZ05G66fjLXyWbwe9hux-2" vertex="1">
          
          <mxGeometry x="50" y="160" width="40" height="20" as="geometry" />
          
        </mxCell>
        
        <mxCell id="BZ05G66fjLXyWbwe9hux-7" value="&lt;font style=&quot;font-size: 18px&quot; face=&quot;Comic Sans MS&quot;&gt;&lt;b&gt;Mimys Hair &amp;amp; Beaute&#39; Louche&lt;/b&gt;&lt;/font&gt;" style="text;html=1;strokeColor=none;fillColor=none;align=center;verticalAlign=middle;whiteSpace=wrap;rounded=0;" parent="BZ05G66fjLXyWbwe9hux-2" vertex="1">
          
          <mxGeometry x="40" y="140" width="450" height="60" as="geometry" />
          
        </mxCell>
        
        <mxCell id="BZ05G66fjLXyWbwe9hux-8" value="" style="shape=rect;fillColor=#F6F6F6;strokeColor=none;" parent="BZ05G66fjLXyWbwe9hux-2" vertex="1">
          
          <mxGeometry x="1466" y="180" width="164" height="30" as="geometry" />
          
        </mxCell>
        
        <mxCell id="BZ05G66fjLXyWbwe9hux-9" value="Search" style="shape=mxgraph.ios7.icons.looking_glass;strokeColor=#878789;fillColor=none;fontColor=#878789;labelPosition=right;verticalLabelPosition=middle;align=left;verticalAlign=middle;fontSize=6;fontStyle=0;spacingTop=2;" parent="BZ05G66fjLXyWbwe9hux-8" vertex="1">
          
          <mxGeometry x="0.5" y="0.5" width="6" height="6" relative="1" as="geometry">
            
            <mxPoint x="-17" y="-3" as="offset" />
            
          </mxGeometry>
          
        </mxCell>
        
        <mxCell id="BZ05G66fjLXyWbwe9hux-10" value="&lt;font style=&quot;font-size: 24px&quot; face=&quot;Tahoma&quot;&gt;Home&amp;nbsp; &amp;nbsp; &amp;nbsp; &amp;nbsp; &amp;nbsp; &amp;nbsp;Hair&amp;nbsp; &amp;nbsp; &amp;nbsp; &amp;nbsp; &amp;nbsp; Makeup&amp;nbsp; &amp;nbsp; &amp;nbsp; &amp;nbsp; &amp;nbsp; &amp;nbsp;Skincare&amp;nbsp; &amp;nbsp; &amp;nbsp; &amp;nbsp; &amp;nbsp; &amp;nbsp; Haircare&amp;nbsp; &amp;nbsp; &amp;nbsp; &amp;nbsp; &amp;nbsp; &amp;nbsp; &amp;nbsp;Men&amp;nbsp; &amp;nbsp; &amp;nbsp; &amp;nbsp; &amp;nbsp; Babies&amp;nbsp; &amp;nbsp; &amp;nbsp; &amp;nbsp; Contact&lt;/font&gt;" style="text;html=1;strokeColor=none;fillColor=#E1D5E7;align=center;verticalAlign=middle;whiteSpace=wrap;rounded=0;" parent="BZ05G66fjLXyWbwe9hux-2" vertex="1">
          
          <mxGeometry x="10" y="220" width="1620" height="50" as="geometry" />
          
        </mxCell>
        
        <mxCell id="BZ05G66fjLXyWbwe9hux-14" value="&lt;h1&gt;&lt;br&gt;&lt;/h1&gt;&lt;h1&gt;All Beauty Products&lt;/h1&gt;&lt;p&gt;Lorem ipsum dolor sit amet, consectetur adipisicing elit, sed do eiusmod tempor incididunt ut labore et dolore magna aliqua.&lt;/p&gt;" style="text;html=1;strokeColor=none;fillColor=none;spacing=5;spacingTop=-20;whiteSpace=wrap;overflow=hidden;rounded=0;align=center;" parent="BZ05G66fjLXyWbwe9hux-2" vertex="1">
          
          <mxGeometry x="260" y="330" width="1200" height="260" as="geometry" />
          
        </mxCell>
        
        <mxCell id="BZ05G66fjLXyWbwe9hux-16" value="" style="group" parent="BZ05G66fjLXyWbwe9hux-2" vertex="1" connectable="0">
          
          <mxGeometry x="70" y="638" width="1480" height="1340" as="geometry" />
          
        </mxCell>
        
        <mxCell id="BZ05G66fjLXyWbwe9hux-17" value="" style="verticalLabelPosition=bottom;shadow=0;dashed=0;align=center;html=1;verticalAlign=top;strokeWidth=1;shape=mxgraph.mockup.graphics.simpleIcon;strokeColor=#999999;fillColor=#ffffff;" parent="BZ05G66fjLXyWbwe9hux-16" vertex="1">
          
          <mxGeometry width="370" height="335" as="geometry" />
          
        </mxCell>
        
        <mxCell id="BZ05G66fjLXyWbwe9hux-18" value="" style="verticalLabelPosition=bottom;shadow=0;dashed=0;align=center;html=1;verticalAlign=top;strokeWidth=1;shape=mxgraph.mockup.graphics.simpleIcon;strokeColor=#999999;fillColor=#ffffff;" parent="BZ05G66fjLXyWbwe9hux-16" vertex="1">
          
          <mxGeometry x="555" width="370" height="335" as="geometry" />
          
        </mxCell>
        
        <mxCell id="BZ05G66fjLXyWbwe9hux-19" value="" style="verticalLabelPosition=bottom;shadow=0;dashed=0;align=center;html=1;verticalAlign=top;strokeWidth=1;shape=mxgraph.mockup.graphics.simpleIcon;strokeColor=#999999;fillColor=#ffffff;" parent="BZ05G66fjLXyWbwe9hux-16" vertex="1">
          
          <mxGeometry x="1110" width="370" height="335" as="geometry" />
          
        </mxCell>
        
        <mxCell id="BZ05G66fjLXyWbwe9hux-20" value="" style="verticalLabelPosition=bottom;shadow=0;dashed=0;align=center;html=1;verticalAlign=top;strokeWidth=1;shape=mxgraph.mockup.graphics.simpleIcon;strokeColor=#999999;fillColor=#ffffff;" parent="BZ05G66fjLXyWbwe9hux-16" vertex="1">
          
          <mxGeometry y="502.50000000000006" width="370" height="335" as="geometry" />
          
        </mxCell>
        
        <mxCell id="BZ05G66fjLXyWbwe9hux-21" value="" style="verticalLabelPosition=bottom;shadow=0;dashed=0;align=center;html=1;verticalAlign=top;strokeWidth=1;shape=mxgraph.mockup.graphics.simpleIcon;strokeColor=#999999;fillColor=#ffffff;" parent="BZ05G66fjLXyWbwe9hux-16" vertex="1">
          
          <mxGeometry x="555" y="502.50000000000006" width="370" height="335" as="geometry" />
          
        </mxCell>
        
        <mxCell id="BZ05G66fjLXyWbwe9hux-22" value="" style="verticalLabelPosition=bottom;shadow=0;dashed=0;align=center;html=1;verticalAlign=top;strokeWidth=1;shape=mxgraph.mockup.graphics.simpleIcon;strokeColor=#999999;fillColor=#ffffff;" parent="BZ05G66fjLXyWbwe9hux-16" vertex="1">
          
          <mxGeometry x="1110" y="502.50000000000006" width="370" height="335" as="geometry" />
          
        </mxCell>
        
        <mxCell id="BZ05G66fjLXyWbwe9hux-23" value="" style="verticalLabelPosition=bottom;shadow=0;dashed=0;align=center;html=1;verticalAlign=top;strokeWidth=1;shape=mxgraph.mockup.graphics.simpleIcon;strokeColor=#999999;fillColor=#ffffff;" parent="BZ05G66fjLXyWbwe9hux-16" vertex="1">
          
          <mxGeometry y="1005.0000000000001" width="370" height="335" as="geometry" />
          
        </mxCell>
        
        <mxCell id="BZ05G66fjLXyWbwe9hux-24" value="" style="verticalLabelPosition=bottom;shadow=0;dashed=0;align=center;html=1;verticalAlign=top;strokeWidth=1;shape=mxgraph.mockup.graphics.simpleIcon;strokeColor=#999999;fillColor=#ffffff;" parent="BZ05G66fjLXyWbwe9hux-16" vertex="1">
          
          <mxGeometry x="555" y="1005.0000000000001" width="370" height="335" as="geometry" />
          
        </mxCell>
        
        <mxCell id="BZ05G66fjLXyWbwe9hux-25" value="" style="verticalLabelPosition=bottom;shadow=0;dashed=0;align=center;html=1;verticalAlign=top;strokeWidth=1;shape=mxgraph.mockup.graphics.simpleIcon;strokeColor=#999999;fillColor=#ffffff;" parent="BZ05G66fjLXyWbwe9hux-16" vertex="1">
          
          <mxGeometry x="1110" y="1005.0000000000001" width="370" height="335" as="geometry" />
          
        </mxCell>
        
        <mxCell id="BZ05G66fjLXyWbwe9hux-26" value="" style="group" parent="BZ05G66fjLXyWbwe9hux-2" vertex="1" connectable="0">
          
          <mxGeometry x="80" y="2208" width="1480" height="1340" as="geometry" />
          
        </mxCell>
        
        <mxCell id="BZ05G66fjLXyWbwe9hux-27" value="" style="verticalLabelPosition=bottom;shadow=0;dashed=0;align=center;html=1;verticalAlign=top;strokeWidth=1;shape=mxgraph.mockup.graphics.simpleIcon;strokeColor=#999999;fillColor=#ffffff;" parent="BZ05G66fjLXyWbwe9hux-26" vertex="1">
          
          <mxGeometry width="370" height="335" as="geometry" />
          
        </mxCell>
        
        <mxCell id="BZ05G66fjLXyWbwe9hux-28" value="" style="verticalLabelPosition=bottom;shadow=0;dashed=0;align=center;html=1;verticalAlign=top;strokeWidth=1;shape=mxgraph.mockup.graphics.simpleIcon;strokeColor=#999999;fillColor=#ffffff;" parent="BZ05G66fjLXyWbwe9hux-26" vertex="1">
          
          <mxGeometry x="555" width="370" height="335" as="geometry" />
          
        </mxCell>
        
        <mxCell id="BZ05G66fjLXyWbwe9hux-29" value="" style="verticalLabelPosition=bottom;shadow=0;dashed=0;align=center;html=1;verticalAlign=top;strokeWidth=1;shape=mxgraph.mockup.graphics.simpleIcon;strokeColor=#999999;fillColor=#ffffff;" parent="BZ05G66fjLXyWbwe9hux-26" vertex="1">
          
          <mxGeometry x="1110" width="370" height="335" as="geometry" />
          
        </mxCell>
        
        <mxCell id="BZ05G66fjLXyWbwe9hux-30" value="" style="group" parent="BZ05G66fjLXyWbwe9hux-26" vertex="1" connectable="0">
          
          <mxGeometry y="502.50000000000006" width="1480" height="837.5" as="geometry" />
          
        </mxCell>
        
        <mxCell id="BZ05G66fjLXyWbwe9hux-31" value="" style="verticalLabelPosition=bottom;shadow=0;dashed=0;align=center;html=1;verticalAlign=top;strokeWidth=1;shape=mxgraph.mockup.graphics.simpleIcon;strokeColor=#999999;fillColor=#ffffff;" parent="BZ05G66fjLXyWbwe9hux-30" vertex="1">
          
          <mxGeometry width="370" height="335" as="geometry" />
          
        </mxCell>
        
        <mxCell id="BZ05G66fjLXyWbwe9hux-32" value="" style="verticalLabelPosition=bottom;shadow=0;dashed=0;align=center;html=1;verticalAlign=top;strokeWidth=1;shape=mxgraph.mockup.graphics.simpleIcon;strokeColor=#999999;fillColor=#ffffff;" parent="BZ05G66fjLXyWbwe9hux-30" vertex="1">
          
          <mxGeometry x="555" width="370" height="335" as="geometry" />
          
        </mxCell>
        
        <mxCell id="BZ05G66fjLXyWbwe9hux-33" value="" style="verticalLabelPosition=bottom;shadow=0;dashed=0;align=center;html=1;verticalAlign=top;strokeWidth=1;shape=mxgraph.mockup.graphics.simpleIcon;strokeColor=#999999;fillColor=#ffffff;" parent="BZ05G66fjLXyWbwe9hux-30" vertex="1">
          
          <mxGeometry x="1110" width="370" height="335" as="geometry" />
          
        </mxCell>
        
        <mxCell id="BZ05G66fjLXyWbwe9hux-34" value="" style="group" parent="BZ05G66fjLXyWbwe9hux-30" vertex="1" connectable="0">
          
          <mxGeometry y="502.50000000000006" width="1480" height="334.99999999999994" as="geometry" />
          
        </mxCell>
        
        <mxCell id="BZ05G66fjLXyWbwe9hux-35" value="" style="verticalLabelPosition=bottom;shadow=0;dashed=0;align=center;html=1;verticalAlign=top;strokeWidth=1;shape=mxgraph.mockup.graphics.simpleIcon;strokeColor=#999999;fillColor=#ffffff;" parent="BZ05G66fjLXyWbwe9hux-34" vertex="1">
          
          <mxGeometry width="370" height="335" as="geometry" />
          
        </mxCell>
        
        <mxCell id="BZ05G66fjLXyWbwe9hux-36" value="" style="verticalLabelPosition=bottom;shadow=0;dashed=0;align=center;html=1;verticalAlign=top;strokeWidth=1;shape=mxgraph.mockup.graphics.simpleIcon;strokeColor=#999999;fillColor=#ffffff;" parent="BZ05G66fjLXyWbwe9hux-34" vertex="1">
          
          <mxGeometry x="555" width="370" height="335" as="geometry" />
          
        </mxCell>
        
        <mxCell id="BZ05G66fjLXyWbwe9hux-37" value="" style="verticalLabelPosition=bottom;shadow=0;dashed=0;align=center;html=1;verticalAlign=top;strokeWidth=1;shape=mxgraph.mockup.graphics.simpleIcon;strokeColor=#999999;fillColor=#ffffff;" parent="BZ05G66fjLXyWbwe9hux-34" vertex="1">
          
          <mxGeometry x="1110" width="370" height="335" as="geometry" />
          
        </mxCell>
        
        <mxCell id="BZ05G66fjLXyWbwe9hux-38" value="" style="group" parent="BZ05G66fjLXyWbwe9hux-30" vertex="1" connectable="0">
          
          <mxGeometry x="10" y="512.5" width="1480" height="334.99999999999994" as="geometry" />
          
        </mxCell>
        
        <mxCell id="BZ05G66fjLXyWbwe9hux-39" value="" style="verticalLabelPosition=bottom;shadow=0;dashed=0;align=center;html=1;verticalAlign=top;strokeWidth=1;shape=mxgraph.mockup.graphics.simpleIcon;strokeColor=#999999;fillColor=#ffffff;" parent="BZ05G66fjLXyWbwe9hux-38" vertex="1">
          
          <mxGeometry width="370" height="335" as="geometry" />
          
        </mxCell>
        
        <mxCell id="BZ05G66fjLXyWbwe9hux-40" value="" style="verticalLabelPosition=bottom;shadow=0;dashed=0;align=center;html=1;verticalAlign=top;strokeWidth=1;shape=mxgraph.mockup.graphics.simpleIcon;strokeColor=#999999;fillColor=#ffffff;" parent="BZ05G66fjLXyWbwe9hux-38" vertex="1">
          
          <mxGeometry x="555" width="370" height="335" as="geometry" />
          
        </mxCell>
        
        <mxCell id="BZ05G66fjLXyWbwe9hux-41" value="" style="verticalLabelPosition=bottom;shadow=0;dashed=0;align=center;html=1;verticalAlign=top;strokeWidth=1;shape=mxgraph.mockup.graphics.simpleIcon;strokeColor=#999999;fillColor=#ffffff;" parent="BZ05G66fjLXyWbwe9hux-38" vertex="1">
          
          <mxGeometry x="1110" width="370" height="335" as="geometry" />
          
        </mxCell>
        
        <mxCell id="BZ05G66fjLXyWbwe9hux-42" value="" style="group" parent="BZ05G66fjLXyWbwe9hux-2" vertex="1" connectable="0">
          
          <mxGeometry x="90" y="3640" width="1480" height="1340" as="geometry" />
          
        </mxCell>
        
        <mxCell id="BZ05G66fjLXyWbwe9hux-43" value="" style="verticalLabelPosition=bottom;shadow=0;dashed=0;align=center;html=1;verticalAlign=top;strokeWidth=1;shape=mxgraph.mockup.graphics.simpleIcon;strokeColor=#999999;fillColor=#ffffff;" parent="BZ05G66fjLXyWbwe9hux-42" vertex="1">
          
          <mxGeometry y="79" width="370" height="335" as="geometry" />
          
        </mxCell>
        
        <mxCell id="BZ05G66fjLXyWbwe9hux-44" value="" style="verticalLabelPosition=bottom;shadow=0;dashed=0;align=center;html=1;verticalAlign=top;strokeWidth=1;shape=mxgraph.mockup.graphics.simpleIcon;strokeColor=#999999;fillColor=#ffffff;" parent="BZ05G66fjLXyWbwe9hux-42" vertex="1">
          
          <mxGeometry x="555" y="79" width="370" height="335" as="geometry" />
          
        </mxCell>
        
        <mxCell id="BZ05G66fjLXyWbwe9hux-45" value="" style="verticalLabelPosition=bottom;shadow=0;dashed=0;align=center;html=1;verticalAlign=top;strokeWidth=1;shape=mxgraph.mockup.graphics.simpleIcon;strokeColor=#999999;fillColor=#ffffff;" parent="BZ05G66fjLXyWbwe9hux-42" vertex="1">
          
          <mxGeometry x="1110" y="79" width="370" height="335" as="geometry" />
          
        </mxCell>
        
        <mxCell id="BZ05G66fjLXyWbwe9hux-46" value="" style="verticalLabelPosition=bottom;shadow=0;dashed=0;align=center;html=1;verticalAlign=top;strokeWidth=1;shape=mxgraph.mockup.graphics.simpleIcon;strokeColor=#999999;fillColor=#ffffff;" parent="BZ05G66fjLXyWbwe9hux-42" vertex="1">
          
          <mxGeometry y="581.5" width="370" height="335" as="geometry" />
          
        </mxCell>
        
        <mxCell id="BZ05G66fjLXyWbwe9hux-47" value="" style="verticalLabelPosition=bottom;shadow=0;dashed=0;align=center;html=1;verticalAlign=top;strokeWidth=1;shape=mxgraph.mockup.graphics.simpleIcon;strokeColor=#999999;fillColor=#ffffff;" parent="BZ05G66fjLXyWbwe9hux-42" vertex="1">
          
          <mxGeometry x="555" y="581.5" width="370" height="335" as="geometry" />
          
        </mxCell>
        
        <mxCell id="BZ05G66fjLXyWbwe9hux-48" value="" style="verticalLabelPosition=bottom;shadow=0;dashed=0;align=center;html=1;verticalAlign=top;strokeWidth=1;shape=mxgraph.mockup.graphics.simpleIcon;strokeColor=#999999;fillColor=#ffffff;" parent="BZ05G66fjLXyWbwe9hux-42" vertex="1">
          
          <mxGeometry x="1110" y="581.5" width="370" height="335" as="geometry" />
          
        </mxCell>
        
        <mxCell id="WwgJ7_P7GuKnjqbKD12p-0" value="&lt;h1&gt;&lt;font style=&quot;font-size: 18px&quot;&gt;Useful &lt;/font&gt;&lt;font style=&quot;font-size: 18px&quot;&gt;Links!&lt;/font&gt;&lt;/h1&gt;&lt;div&gt;&lt;font style=&quot;font-size: 11px&quot;&gt;Coupons&lt;/font&gt;&lt;/div&gt;&lt;div&gt;&lt;font style=&quot;font-size: 11px&quot;&gt;Blog Post&lt;/font&gt;&lt;/div&gt;&lt;div&gt;&lt;font style=&quot;font-size: 11px&quot;&gt;Return Policy&lt;/font&gt;&lt;/div&gt;&lt;div&gt;&lt;font style=&quot;font-size: 11px&quot;&gt;Our Affiliate&lt;/font&gt;&lt;/div&gt;" style="text;html=1;strokeColor=none;fillColor=none;spacing=5;spacingTop=-20;whiteSpace=wrap;overflow=hidden;rounded=0;align=center;" parent="BZ05G66fjLXyWbwe9hux-2" vertex="1">
          
          <mxGeometry x="799.5" y="4905" width="190" height="185" as="geometry" />
          
        </mxCell>
        
        <mxCell id="WwgJ7_P7GuKnjqbKD12p-1" value="&lt;h1&gt;&lt;font style=&quot;font-size: 11px&quot;&gt;Follow Us!!&lt;/font&gt;&lt;/h1&gt;&lt;div&gt;&lt;span style=&quot;font-size: 11px&quot;&gt;Facebook&lt;/span&gt;&lt;/div&gt;&lt;div&gt;&lt;span style=&quot;font-size: 11px&quot;&gt;Instagram&lt;/span&gt;&lt;/div&gt;&lt;div&gt;&lt;span style=&quot;font-size: 11px&quot;&gt;Linkedin&lt;/span&gt;&lt;/div&gt;&lt;div&gt;&lt;span style=&quot;font-size: 11px&quot;&gt;Twitter&lt;/span&gt;&lt;/div&gt;&lt;div&gt;&lt;span style=&quot;font-size: 11px&quot;&gt;Youtube&lt;/span&gt;&lt;/div&gt;&lt;div&gt;&lt;font style=&quot;font-size: 11px&quot;&gt;&lt;br&gt;&lt;/font&gt;&lt;/div&gt;" style="text;html=1;strokeColor=none;fillColor=none;spacing=5;spacingTop=-20;whiteSpace=wrap;overflow=hidden;rounded=0;align=center;" parent="BZ05G66fjLXyWbwe9hux-2" vertex="1">
          
          <mxGeometry x="1246" y="4900" width="190" height="120" as="geometry" />
          
        </mxCell>
        
        <mxCell id="WwgJ7_P7GuKnjqbKD12p-2" value="" style="verticalLabelPosition=bottom;shadow=0;dashed=0;align=center;html=1;verticalAlign=top;strokeWidth=1;shape=mxgraph.mockup.forms.splitter;strokeColor=#999999;fillColor=#E6E6E6;" parent="BZ05G66fjLXyWbwe9hux-2" vertex="1">
          
          <mxGeometry x="10" y="4900" width="1600" height="10" as="geometry" />
          
        </mxCell>
        
        <UserObject label="%date{ddd mmm dd yyyy HH:MM:ss}%" placeholders="1" id="WwgJ7_P7GuKnjqbKD12p-3">
          
          <mxCell style="text;html=1;strokeColor=none;fillColor=none;align=center;verticalAlign=middle;whiteSpace=wrap;overflow=hidden;" parent="BZ05G66fjLXyWbwe9hux-2" vertex="1">
            
            <mxGeometry x="1409.5" y="5000" width="160" height="20" as="geometry" />
            
          </mxCell>
          
        </UserObject>
        
        <mxCell id="WwgJ7_P7GuKnjqbKD12p-4" value="" style="group" parent="BZ05G66fjLXyWbwe9hux-2" vertex="1" connectable="0">
          
          <mxGeometry x="49.5" y="4900" width="250" height="120" as="geometry" />
          
        </mxCell>
        
        <mxCell id="WwgJ7_P7GuKnjqbKD12p-5" value="&lt;h1&gt;&lt;font style=&quot;font-size: 18px&quot;&gt;Download our App!&lt;/font&gt;&lt;/h1&gt;&lt;div&gt;&lt;font style=&quot;font-size: 11px&quot;&gt;Download App for Android and ios Mobile Phones.&lt;/font&gt;&lt;/div&gt;" style="text;html=1;strokeColor=none;fillColor=none;spacing=5;spacingTop=-20;whiteSpace=wrap;overflow=hidden;rounded=0;" parent="WwgJ7_P7GuKnjqbKD12p-4" vertex="1">
          
          <mxGeometry width="190" height="120" as="geometry" />
          
        </mxCell>
        
        <mxCell id="WwgJ7_P7GuKnjqbKD12p-6" value="" style="verticalLabelPosition=bottom;shadow=0;dashed=0;align=center;html=1;verticalAlign=top;strokeWidth=1;shape=mxgraph.mockup.graphics.simpleIcon;strokeColor=#999999;fillColor=#E6E6E6;" parent="WwgJ7_P7GuKnjqbKD12p-4" vertex="1">
          
          <mxGeometry y="79" width="120" height="40" as="geometry" />
          
        </mxCell>
        
        <mxCell id="WwgJ7_P7GuKnjqbKD12p-7" value="" style="verticalLabelPosition=bottom;shadow=0;dashed=0;align=center;html=1;verticalAlign=top;strokeWidth=1;shape=mxgraph.mockup.graphics.simpleIcon;strokeColor=#999999;fillColor=#E6E6E6;" parent="WwgJ7_P7GuKnjqbKD12p-4" vertex="1">
          
          <mxGeometry x="130" y="80" width="120" height="40" as="geometry" />
          
        </mxCell>
        
        <mxCell id="WwgJ7_P7GuKnjqbKD12p-8" value="&lt;font style=&quot;font-size: 14px&quot;&gt;&lt;b&gt;ios logo&lt;/b&gt;&lt;/font&gt;" style="text;html=1;strokeColor=none;fillColor=none;align=center;verticalAlign=middle;whiteSpace=wrap;rounded=0;" parent="WwgJ7_P7GuKnjqbKD12p-4" vertex="1">
          
          <mxGeometry y="85" width="120" height="30" as="geometry" />
          
        </mxCell>
        
        <mxCell id="WwgJ7_P7GuKnjqbKD12p-9" value="&lt;font style=&quot;font-size: 14px&quot;&gt;&lt;b&gt;Android Logo&lt;/b&gt;&lt;/font&gt;" style="text;html=1;strokeColor=none;fillColor=none;align=center;verticalAlign=middle;whiteSpace=wrap;rounded=0;" parent="WwgJ7_P7GuKnjqbKD12p-4" vertex="1">
          
          <mxGeometry x="130" y="85" width="120" height="30" as="geometry" />
          
        </mxCell>
        
        <mxCell id="WwgJ7_P7GuKnjqbKD12p-10" value="&lt;&lt; Prev 1 2 3 4 5 6 7 8 9 10 Next &gt;&gt;" style="strokeWidth=1;shadow=0;dashed=0;align=center;html=1;shape=mxgraph.mockup.navigation.pagination;linkText=;fontSize=17;fontColor=#0000ff;fontStyle=4;fillColor=#E6E6E6;" parent="BZ05G66fjLXyWbwe9hux-2" vertex="1">
          
          <mxGeometry x="1246" y="4850" width="350" height="30" as="geometry" />
          
        </mxCell>
        
      </root>
      
    </mxGraphModel>
    
  </diagram>
</mxfile>
